<svg width="17" height="16" viewBox="0 0 17 16" fill="none" xmlns="http://www.w3.org/2000/svg">
<path fill-rule="evenodd" clip-rule="evenodd" d="M7.14 0H8.5C9.2454 0 9.61809 0 9.96854 0.0855164L10 0.0933722C10.2872 0.166743 10.5619 0.28228 10.8153 0.436264C11.1236 0.623602 11.3871 0.887139 11.9142 1.41421L15.0858 4.58579C15.6129 5.11286 15.8764 5.3764 16.0637 5.68467C16.2177 5.93807 16.3333 6.21283 16.4066 6.5L16.4145 6.53145C16.5 6.88191 16.5 7.2546 16.5 8V9.36C16.5 11.8271 16.5 13.0606 15.9745 13.9818C15.6196 14.6041 15.1041 15.1196 14.4818 15.4745C13.5606 16 12.3271 16 9.86 16H7.14C4.67295 16 3.43942 16 2.51817 15.4745C1.89592 15.1196 1.3804 14.6041 1.02547 13.9818C0.5 13.0606 0.5 11.8271 0.5 9.36V6.64C0.5 4.17295 0.5 2.93942 1.02547 2.01817C1.3804 1.39592 1.89592 0.880399 2.51817 0.525474C3.43942 0 4.67295 0 7.14 0ZM8.5 2.86C8.5 2.52512 8.5 2.35768 8.46029 2.22101C8.36478 1.89226 8.10774 1.63522 7.77899 1.53971C7.64232 1.5 7.47488 1.5 7.14 1.5C5.87915 1.5 5.0328 1.50141 4.38348 1.55968C3.75446 1.61613 3.45749 1.71655 3.26135 1.82842C2.87245 2.05025 2.55025 2.37245 2.32842 2.76135C2.21655 2.95749 2.11613 3.25446 2.05968 3.88348C2.00141 4.5328 2 5.37915 2 6.64V9.36C2 10.6208 2.00141 11.4672 2.05968 12.1165C2.11613 12.7455 2.21655 13.0425 2.32842 13.2386C2.55025 13.6276 2.87245 13.9498 3.26135 14.1716C3.45749 14.2835 3.75446 14.3839 4.38348 14.4403C5.0328 14.4986 5.87915 14.5 7.14 14.5H9.86C11.1208 14.5 11.9672 14.4986 12.6165 14.4403C13.2455 14.3839 13.5425 14.2835 13.7386 14.1716C14.1276 13.9498 14.4498 13.6276 14.6716 13.2386C14.7835 13.0425 14.8839 12.7455 14.9403 12.1165C14.9986 11.4672 15 10.6208 15 9.36C15 9.02512 15 8.85768 14.9603 8.72101C14.8648 8.39226 14.6077 8.13522 14.279 8.03971C14.1423 8 13.9749 8 13.64 8H13.48C11.6297 8 10.7046 8 10.0136 7.60589C9.54694 7.3397 9.1603 6.95306 8.89411 6.48638C8.5 5.79544 8.5 4.87029 8.5 3.02V2.86ZM10.8536 2.47487L14.0251 5.64645C14.6035 6.22483 14.71 6.34537 14.7819 6.46366C14.7892 6.47568 14.7963 6.48779 14.8033 6.5H13.48C12.5275 6.5 11.9125 6.49859 11.4461 6.45674C11.0001 6.41671 10.8378 6.34914 10.7568 6.30295C10.5235 6.16985 10.3301 5.97653 10.1971 5.74319C10.1509 5.66221 10.0833 5.49991 10.0433 5.05387C10.0014 4.58753 10 3.97246 10 3.02V1.69674C10.1324 1.77216 10.2164 1.83772 10.8536 2.47487Z" fill="#9EA9A9"/>
</svg>
