<svg width="17" height="16" viewBox="0 0 17 16" fill="none" xmlns="http://www.w3.org/2000/svg">
<path fill-rule="evenodd" clip-rule="evenodd" d="M4.52558 4.02559C4.55841 3.35767 4.63336 2.88239 4.80448 2.46927C5.21046 1.48915 5.98915 0.710458 6.96927 0.304482C7.70435 0 8.63623 0 10.5 0C12.3638 0 13.2956 0 14.0307 0.304482C15.0108 0.710458 15.7895 1.48915 16.1955 2.46927C16.5 3.20435 16.5 4.13623 16.5 6C16.5 7.86377 16.5 8.79565 16.1955 9.53073C15.7895 10.5108 15.0108 11.2895 14.0307 11.6955C13.6172 11.8668 13.1415 11.9417 12.4726 11.9745L12.4744 11.9744C12.4416 12.6423 12.3666 13.1176 12.1955 13.5307C11.7895 14.5109 11.0108 15.2895 10.0307 15.6955C9.29565 16 8.36377 16 6.5 16C4.63623 16 3.70435 16 2.96927 15.6955C1.98915 15.2895 1.21046 14.5109 0.804482 13.5307C0.5 12.7957 0.5 11.8638 0.5 10C0.5 8.13624 0.5 7.20436 0.804482 6.46927C1.21046 5.48916 1.98915 4.71046 2.96927 4.30449C3.38239 4.13337 3.85766 4.05842 4.52558 4.02559ZM10.5 10.5C9.54759 10.5 8.90841 10.4992 8.41348 10.4654C7.93203 10.4326 7.6976 10.3736 7.54329 10.3097C6.93072 10.056 6.44404 9.56928 6.1903 8.95671C6.12639 8.8024 6.06743 8.56797 6.03458 8.08652C6.00081 7.59159 6 6.95241 6 6C6 5.04759 6.00081 4.40841 6.03458 3.91348C6.06743 3.43203 6.12639 3.1976 6.1903 3.04329C6.44404 2.43072 6.93072 1.94404 7.54329 1.6903C7.6976 1.62639 7.93203 1.56743 8.41348 1.53458C8.90841 1.50081 9.54759 1.5 10.5 1.5C11.4524 1.5 12.0916 1.50081 12.5865 1.53458C13.068 1.56743 13.3024 1.62639 13.4567 1.6903C14.0693 1.94404 14.556 2.43072 14.8097 3.04329C14.8736 3.1976 14.9326 3.43203 14.9654 3.91348C14.9992 4.40841 15 5.04759 15 6C15 6.95241 14.9992 7.59159 14.9654 8.08652C14.9326 8.56797 14.8736 8.8024 14.8097 8.95671C14.556 9.56928 14.0693 10.056 13.4567 10.3097C13.3024 10.3736 13.068 10.4326 12.5865 10.4654C12.0916 10.4992 11.4524 10.5 10.5 10.5ZM4.50021 5.52909C4.4708 5.53082 4.44191 5.53265 4.41348 5.53459C3.93203 5.56743 3.6976 5.62639 3.54329 5.69031C2.93072 5.94404 2.44404 6.43073 2.1903 7.0433C2.12639 7.1976 2.06743 7.43203 2.03458 7.91349C2.00081 8.40842 2 9.0476 2 10C2 10.9524 2.00081 11.5916 2.03458 12.0865C2.06743 12.568 2.12639 12.8024 2.1903 12.9567C2.44404 13.5693 2.93072 14.056 3.54329 14.3097C3.6976 14.3736 3.93203 14.4326 4.41348 14.4654C4.90841 14.4992 5.54759 14.5 6.5 14.5C7.45241 14.5 8.09159 14.4992 8.58652 14.4654C9.06797 14.4326 9.3024 14.3736 9.45671 14.3097C10.0693 14.056 10.556 13.5693 10.8097 12.9567C10.8736 12.8024 10.9326 12.568 10.9654 12.0865C10.9674 12.0581 10.9692 12.0292 10.9709 11.9998C10.8208 12 10.664 12 10.5 12C8.63623 12 7.70435 12 6.96927 11.6955C5.98915 11.2895 5.21046 10.5108 4.80448 9.53073C4.5 8.79565 4.5 7.86377 4.5 6C4.5 5.83598 4.5 5.67918 4.50021 5.52909Z" fill="#E4E7E7"/>
</svg>
