<svg width="473" height="282" viewBox="0 0 473 282" fill="none" xmlns="http://www.w3.org/2000/svg">
<g clip-path="url(#clip0_1211_32656)">
<rect x="1" y="20.5" width="471" height="261" rx="43.5" fill="#794CFF"/>
<rect x="1" y="20.5" width="471" height="261" rx="43.5" stroke="#987DE8"/>
<g filter="url(#filter0_d_1211_32656)">
<rect x="41" width="392" height="263" rx="40" fill="#F1F3F3" shape-rendering="crispEdges"/>
<g clip-path="url(#clip1_1211_32656)">
<path d="M137 45.0104C137 35.7589 137 31.1332 138.971 27.6785C140.301 25.345 142.235 23.4118 144.568 22.0809C148.023 20.1104 152.649 20.1104 161.9 20.1104H172.1C181.351 20.1104 185.977 20.1104 189.432 22.0809C191.765 23.4118 193.699 25.345 195.029 27.6785C197 31.1332 197 35.7589 197 45.0104V55.2104C197 64.4618 197 69.0875 195.029 72.5422C193.699 74.8757 191.765 76.8089 189.432 78.1398C185.977 80.1104 181.351 80.1104 172.1 80.1104H161.9C152.649 80.1104 148.023 80.1104 144.568 78.1398C142.235 76.8089 140.301 74.8757 138.971 72.5422C137 69.0875 137 64.4618 137 55.2104V45.0104Z" fill="#1DC956"/>
<path d="M153.109 79.9994C149.276 79.821 146.699 79.3552 144.568 78.1397C142.235 76.8087 140.301 74.8756 138.971 72.5421C137.553 70.0573 137.155 66.9667 137.044 61.9849L141.19 60.6029C142.335 60.2212 143.246 59.3428 143.67 58.2126L148.323 45.804C148.701 44.7967 149.808 44.2687 150.828 44.6089L153.354 45.4509C154.299 45.7656 155.331 45.3382 155.776 44.4479L158.745 38.5101C159.555 36.8902 161.929 37.0951 162.449 38.8299L166.223 51.411C166.61 52.6983 168.13 53.2459 169.249 52.5004L172.59 50.2729C172.859 50.0933 173.081 49.8509 173.236 49.5665L178.534 39.8544C178.828 39.3147 179.354 38.9404 179.961 38.8393L184.095 38.1502C184.67 38.0544 185.257 38.2138 185.705 38.5865L189.597 41.8302C190.392 42.4924 191.56 42.4394 192.291 41.7079L196.924 37.0757C197 39.2803 197 41.8806 197 45.0102V55.2102C197 64.4617 197 69.0874 195.029 72.5421C193.698 74.8756 191.765 76.8087 189.432 78.1397C187.301 79.3552 184.724 79.821 180.891 79.9994H153.109Z" fill="#2BEE6C"/>
<path d="M137.072 63.0293C137.05 62.3684 137.035 61.6722 137.024 60.9371L140.873 59.6541C141.732 59.3678 142.416 58.7091 142.734 57.8614L147.387 45.4528C147.954 43.9419 149.614 43.1498 151.145 43.6601L153.671 44.5021C154.143 44.6595 154.659 44.4458 154.881 44.0006L157.85 38.0628C159.065 35.6329 162.626 35.9403 163.407 38.5424L167.181 51.1236C167.374 51.7672 168.135 52.041 168.694 51.6683L172.035 49.4408C172.17 49.351 172.281 49.2298 172.358 49.0876L177.656 39.3755C178.097 38.5659 178.887 38.0044 179.796 37.8528L183.931 37.1637C184.792 37.0201 185.674 37.2591 186.345 37.8182L190.237 41.0619C190.634 41.393 191.219 41.3665 191.584 41.0007L196.864 35.7212C196.91 36.5657 196.941 37.473 196.961 38.4525L192.999 42.415C191.901 43.5121 190.149 43.5916 188.957 42.5983L185.064 39.3547C184.841 39.1683 184.547 39.0886 184.26 39.1365L180.125 39.8256C179.822 39.8761 179.559 40.0633 179.412 40.3332L174.114 50.0453C173.881 50.4718 173.549 50.8354 173.144 51.1049L169.803 53.3324C168.126 54.4506 165.845 53.6292 165.266 51.6983L161.491 39.1171C161.231 38.2497 160.044 38.1473 159.639 38.9573L156.67 44.8951C156.003 46.2304 154.455 46.8716 153.038 46.3995L150.512 45.5575C150.002 45.3874 149.448 45.6514 149.26 46.155L144.606 58.5637C144.077 59.9764 142.937 61.0743 141.506 61.5515L137.072 63.0293Z" fill="white"/>
<path fill-rule="evenodd" clip-rule="evenodd" d="M186.5 38.9995C186.5 42.0371 184.038 44.4995 181 44.4995C177.962 44.4995 175.5 42.0371 175.5 38.9995C175.5 35.9619 177.962 33.4995 181 33.4995C184.038 33.4995 186.5 35.9619 186.5 38.9995Z" fill="#2BEE6C"/>
<path d="M184.5 38.9995C184.5 40.9325 182.933 42.4995 181 42.4995C179.067 42.4995 177.5 40.9325 177.5 38.9995C177.5 37.0665 179.067 35.4995 181 35.4995C182.933 35.4995 184.5 37.0665 184.5 38.9995Z" fill="white"/>
<path d="M182 20.2836V79.9373C181.371 79.9794 180.706 80.0112 180 80.0354V20.1855C180.706 20.2097 181.371 20.2415 182 20.2836Z" fill="white"/>
<path d="M137.5 45.0104C137.5 40.3755 137.5 36.9325 137.744 34.2153C137.988 31.5049 138.47 29.5654 139.405 27.9262C140.691 25.6705 142.56 23.8018 144.816 22.5152C146.455 21.5802 148.395 21.0979 151.105 20.8547C153.822 20.6108 157.265 20.6104 161.9 20.6104H172.1C176.735 20.6104 180.178 20.6108 182.895 20.8547C185.605 21.0979 187.545 21.5802 189.184 22.5152C191.44 23.8018 193.309 25.6705 194.595 27.9262C195.53 29.5654 196.012 31.5049 196.256 34.2153C196.5 36.9325 196.5 40.3755 196.5 45.0104V55.2104C196.5 59.8452 196.5 63.2882 196.256 66.0054C196.012 68.7158 195.53 70.6553 194.595 72.2945C193.309 74.5502 191.44 76.4189 189.184 77.7055C187.545 78.6405 185.605 79.1228 182.895 79.366C180.178 79.6099 176.735 79.6104 172.1 79.6104H161.9C157.265 79.6104 153.822 79.6099 151.105 79.366C148.395 79.1228 146.455 78.6405 144.816 77.7055C142.56 76.4189 140.691 74.5502 139.405 72.2945C138.47 70.6553 137.988 68.7158 137.744 66.0054C137.5 63.2882 137.5 59.8452 137.5 55.2104V45.0104Z" stroke="black" stroke-opacity="0.1"/>
</g>
<g clip-path="url(#clip2_1211_32656)">
<rect x="207" y="20" width="60" height="60" rx="3" fill="#C653C6"/>
<path d="M259.094 67.3438C259.094 63.0977 257.658 57.7867 253.209 54.9449C253.376 54.5811 253.469 54.1764 253.469 53.75C253.469 52.5138 252.689 51.4599 251.594 51.0537V50.2344C251.594 49.0396 251.076 47.9668 250.254 47.2268C250.513 46.6408 250.656 45.9928 250.656 45.3125C250.656 43.3783 249.501 41.716 247.844 40.9746V35.4688C247.844 29.221 242.779 24.1562 236.531 24.1562C230.284 24.1562 225.219 29.221 225.219 35.4688V37.6206C224.108 38.1643 223.344 39.3046 223.344 40.625C223.344 41.3941 223.603 42.1018 224.039 42.6661C223.039 43.5364 222.406 44.8187 222.406 46.25C222.406 47.3236 222.763 48.3135 223.362 49.1084C221.681 49.975 220.531 51.7279 220.531 53.75C220.531 54.5243 220.7 55.2608 221.004 55.9231C217.944 60.0516 214.906 64.2209 214.906 71.5625C214.906 74.2311 215.27 76.4194 215.637 77.9482C215.821 78.7129 216.005 79.3137 216.146 79.7283C216.216 79.9357 216.276 80.0967 216.319 80.2085C216.34 80.2644 216.358 80.308 216.371 80.3391L216.386 80.3761L216.391 80.3874L216.392 80.3913L216.393 80.3927L216.393 80.3934C216.393 80.3937 216.393 80.3939 217.312 80L216.393 80.3939L216.653 81H217.312H254.344H254.914L255.204 80.5098L254.344 80C255.204 80.5098 255.204 80.5096 255.204 80.5094L255.205 80.5088L255.206 80.5072L255.209 80.5022L255.218 80.4854L255.253 80.4249C255.283 80.3727 255.326 80.2971 255.38 80.1997C255.488 80.005 255.64 79.7227 255.821 79.3652C256.184 78.6509 256.666 77.6334 257.149 76.4123C258.108 73.9852 259.094 70.687 259.094 67.3438Z" fill="#E87DE8" stroke="white" stroke-width="2"/>
<path fill-rule="evenodd" clip-rule="evenodd" d="M233.5 49.4995C230.5 48.9995 228 46.4995 227.997 42.4995L227.999 35.4995C227.999 35.0344 227.999 34.8019 228.025 34.6066C228.203 33.2612 229.262 32.2027 230.607 32.0253C230.802 31.9995 231.035 31.9995 231.5 31.9995C233.5 31.9995 234 29.4995 234 29.4995C234 29.4995 234 31.9995 236.5 31.9995C237.898 31.9995 238.597 31.9995 239.148 32.2279C239.883 32.5324 240.467 33.1164 240.772 33.8515C241 34.4028 241 35.1017 241 36.4995V42.4995C241 46.4995 238 49.4995 234.5 49.4995C235.85 49.7309 238.5 49.4995 241 47.4995V57.0308C241 58.4995 238.495 59.9995 235 59.9995C231.505 59.9995 229 58.4995 229 57.0308L231 53.9995L233.5 55.4995V49.4995ZM233 66.9995H237.5C240 66.9995 240.5 70.9995 240.5 72.4995H237.5L236.5 70.9995H233V66.9995ZM226.75 72.4995H231V76.9995H223C223 75.9995 224 72.4995 226.75 72.4995Z" fill="white"/>
</g>
<rect x="207.5" y="20.5" width="59" height="59" rx="2.5" stroke="black" stroke-opacity="0.1"/>
<g clip-path="url(#clip3_1211_32656)">
<rect x="277" y="20" width="60" height="60" rx="30" fill="#987DE8"/>
<path fill-rule="evenodd" clip-rule="evenodd" d="M292.48 48.3669L304.446 29.0668C305.62 27.1746 308.373 27.1747 309.546 29.0669L321.516 48.3735C322.101 49.3172 322.413 50.4047 322.417 51.5151L322.417 51.5432C322.421 52.8225 322.016 54.0696 321.262 55.1026L310.226 70.2085C308.628 72.3961 305.363 72.3956 303.766 70.2075L292.733 55.0954C291.983 54.0682 291.579 52.8292 291.579 51.5573L291.579 51.5284C291.579 50.4112 291.891 49.3163 292.48 48.3669Z" fill="white"/>
<path d="M307.84 30.112C307.644 29.8024 307.32 29.6477 306.996 29.6477V44.5L319.593 50.0296C319.675 49.5637 319.593 49.0668 319.323 48.6319L307.84 30.112Z" fill="#643CDD"/>
<path d="M306.996 29.6477C306.672 29.6477 306.347 29.8028 306.151 30.113L294.662 48.6422C294.398 49.0747 294.318 49.5674 294.399 50.0296L306.996 44.5V29.6477Z" fill="#BDADEB"/>
<path d="M306.996 70.5445C307.3 70.5446 307.604 70.4079 307.804 70.1344L319.039 54.7547C319.346 54.3199 318.846 53.7664 318.381 54.0336L308.49 59.71C308.027 59.9755 307.512 60.1082 306.996 60.1081V70.5445Z" fill="#643CDD"/>
<path d="M294.966 54.7621L306.189 70.1342C306.388 70.4077 306.692 70.5445 306.996 70.5445V60.1081C306.481 60.108 305.965 59.9752 305.503 59.7096L295.619 54.0337C295.151 53.7648 294.648 54.3261 294.966 54.7621Z" fill="#BDADEB"/>
<path d="M319.593 50.0298L306.996 44.4998V57.6382C307.512 57.6381 308.028 57.5052 308.49 57.2394L318.64 51.4081C319.165 51.0984 319.496 50.5862 319.593 50.0298Z" fill="#401AB3"/>
<path d="M306.996 57.6382V44.4617L294.398 50.0275C294.496 50.5918 294.835 51.1107 295.372 51.4195L305.501 57.2393C305.964 57.5052 306.48 57.6381 306.996 57.6382Z" fill="#7C5AE2"/>
</g>
<rect x="277.5" y="20.5" width="59" height="59" rx="29.5" stroke="black" stroke-opacity="0.1"/>
<path d="M102.496 114H105.592L106.637 110.582H111.607L112.652 114H115.758L110.855 99.9082H107.389L102.496 114ZM109.039 102.721H109.215L110.934 108.375H107.311L109.039 102.721ZM121.121 114H123.973V107.779C123.973 106.324 124.773 105.377 126.092 105.377C127.439 105.377 128.064 106.178 128.064 107.691V114H130.916V107.047C130.916 104.479 129.627 103.014 127.234 103.014C125.701 103.014 124.637 103.746 124.148 104.908H123.973V99.1367H121.121V114ZM137.455 114.225C140.766 114.225 142.758 112.135 142.758 108.629V108.609C142.758 105.133 140.736 103.014 137.455 103.014C134.174 103.014 132.152 105.143 132.152 108.609V108.629C132.152 112.125 134.145 114.225 137.455 114.225ZM137.455 111.988C135.932 111.988 135.072 110.748 135.072 108.629V108.609C135.072 106.51 135.941 105.25 137.455 105.25C138.959 105.25 139.838 106.51 139.838 108.609V108.629C139.838 110.748 138.969 111.988 137.455 111.988ZM144.082 114H146.934V107.516C146.934 106.285 147.715 105.377 148.828 105.377C149.941 105.377 150.596 106.051 150.596 107.203V114H153.447V107.389C153.447 106.227 154.189 105.377 155.342 105.377C156.533 105.377 157.119 106.031 157.119 107.33V114H159.971V106.617C159.971 104.4 158.633 103.014 156.494 103.014C154.99 103.014 153.74 103.805 153.252 104.996H153.076C152.637 103.756 151.553 103.014 150.088 103.014C148.682 103.014 147.568 103.717 147.109 104.928H146.934V103.248H144.082V114ZM166.461 114.225C169.605 114.225 170.992 112.408 171.324 111.061L171.344 110.963H168.688L168.658 111.021C168.463 111.432 167.77 112.096 166.52 112.096C165.006 112.096 164.059 111.07 164.029 109.303H171.432V108.414C171.432 105.162 169.479 103.014 166.344 103.014C163.209 103.014 161.207 105.211 161.207 108.629V108.639C161.207 112.086 163.189 114.225 166.461 114.225ZM166.393 105.152C167.633 105.152 168.521 105.953 168.697 107.516H164.059C164.234 105.992 165.152 105.152 166.393 105.152ZM177.752 114H180.604V105.396H182.82V103.248H180.545V102.438C180.545 101.5 180.955 100.982 182.059 100.982C182.43 100.982 182.732 101.012 182.908 101.041V99.1367C182.498 99.0781 182.02 99.0293 181.443 99.0293C178.846 99.0293 177.752 100.104 177.752 102.242V103.248H176.014V105.396H177.752V114ZM188.49 114.225C191.801 114.225 193.793 112.135 193.793 108.629V108.609C193.793 105.133 191.771 103.014 188.49 103.014C185.209 103.014 183.188 105.143 183.188 108.609V108.629C183.188 112.125 185.18 114.225 188.49 114.225ZM188.49 111.988C186.967 111.988 186.107 110.748 186.107 108.629V108.609C186.107 106.51 186.977 105.25 188.49 105.25C189.994 105.25 190.873 106.51 190.873 108.609V108.629C190.873 110.748 190.004 111.988 188.49 111.988ZM195.117 114H197.969V107.984C197.969 106.461 198.994 105.533 200.615 105.533C201.055 105.533 201.494 105.602 201.924 105.699V103.209C201.641 103.131 201.24 103.072 200.859 103.072C199.463 103.072 198.486 103.756 198.145 104.918H197.969V103.248H195.117V114ZM208.264 117.789C210.92 117.789 212.336 116.832 213.293 113.99L216.955 103.248H213.947L211.691 111.393H211.496L209.24 103.248H206.105L209.885 114L209.787 114.41C209.582 115.25 208.996 115.641 207.98 115.641C207.717 115.641 207.434 115.631 207.238 115.611V117.76C207.57 117.779 207.932 117.789 208.264 117.789ZM222.264 114.225C225.574 114.225 227.566 112.135 227.566 108.629V108.609C227.566 105.133 225.545 103.014 222.264 103.014C218.982 103.014 216.961 105.143 216.961 108.609V108.629C216.961 112.125 218.953 114.225 222.264 114.225ZM222.264 111.988C220.74 111.988 219.881 110.748 219.881 108.629V108.609C219.881 106.51 220.75 105.25 222.264 105.25C223.768 105.25 224.646 106.51 224.646 108.609V108.629C224.646 110.748 223.777 111.988 222.264 111.988ZM232.445 114.225C233.979 114.225 235.072 113.512 235.561 112.34H235.736V114H238.588V103.248H235.736V109.459C235.736 110.914 234.975 111.861 233.568 111.861C232.221 111.861 231.645 111.07 231.645 109.547V103.248H228.793V110.201C228.793 112.76 230.033 114.225 232.445 114.225ZM240.449 114H243.301V107.984C243.301 106.461 244.326 105.533 245.947 105.533C246.387 105.533 246.826 105.602 247.256 105.699V103.209C246.973 103.131 246.572 103.072 246.191 103.072C244.795 103.072 243.818 103.756 243.477 104.918H243.301V103.248H240.449V114ZM256.154 114.166C257.668 114.166 258.811 113.492 259.367 112.33H259.543V114H262.395V99.1367H259.543V104.967H259.367C258.83 103.795 257.629 103.072 256.154 103.072C253.43 103.072 251.789 105.152 251.789 108.609V108.629C251.789 112.066 253.469 114.166 256.154 114.166ZM257.121 111.803C255.617 111.803 254.689 110.611 254.689 108.629V108.609C254.689 106.646 255.617 105.436 257.121 105.436C258.625 105.436 259.572 106.646 259.572 108.619V108.639C259.572 110.611 258.635 111.803 257.121 111.803ZM265.799 101.598C266.678 101.598 267.4 100.895 267.4 100.016C267.4 99.127 266.678 98.4238 265.799 98.4238C264.92 98.4238 264.188 99.127 264.188 100.016C264.188 100.895 264.92 101.598 265.799 101.598ZM264.363 114H267.215V103.248H264.363V114ZM273.832 117.779C277.084 117.779 279.145 116.188 279.145 113.668V103.248H276.293V105.006H276.156C275.58 103.795 274.428 103.072 272.953 103.072C270.199 103.072 268.529 105.201 268.529 108.365V108.385C268.529 111.441 270.199 113.531 272.904 113.531C274.398 113.531 275.531 112.916 276.127 111.783H276.303V113.785C276.303 115.035 275.414 115.748 273.891 115.748C272.621 115.748 271.879 115.318 271.723 114.693L271.713 114.654H268.891V114.703C269.125 116.529 270.854 117.779 273.832 117.779ZM273.871 111.344C272.328 111.344 271.449 110.143 271.449 108.375V108.355C271.449 106.588 272.338 105.387 273.871 105.387C275.404 105.387 276.332 106.588 276.332 108.355V108.375C276.332 110.143 275.414 111.344 273.871 111.344ZM282.451 101.598C283.33 101.598 284.053 100.895 284.053 100.016C284.053 99.127 283.33 98.4238 282.451 98.4238C281.572 98.4238 280.84 99.127 280.84 100.016C280.84 100.895 281.572 101.598 282.451 101.598ZM281.016 114H283.867V103.248H281.016V114ZM290.201 114.039C290.748 114.039 291.275 113.98 291.627 113.912V111.793C291.354 111.822 291.158 111.842 290.787 111.842C289.82 111.842 289.41 111.412 289.41 110.445V105.396H291.627V103.248H289.41V100.68H286.529V103.248H284.869V105.396H286.529V111.1C286.529 113.189 287.584 114.039 290.201 114.039ZM295.93 114.166C297.336 114.166 298.469 113.57 299.016 112.574H299.191V114H302.004V106.656C302.004 104.361 300.393 103.014 297.541 103.014C294.836 103.014 293.059 104.264 292.834 106.148L292.824 106.236H295.461L295.48 106.197C295.705 105.562 296.359 105.201 297.385 105.201C298.557 105.201 299.191 105.729 299.191 106.656V107.545L296.594 107.701C293.918 107.857 292.424 108.99 292.424 110.924V110.943C292.424 112.896 293.879 114.166 295.93 114.166ZM295.207 110.768V110.748C295.207 109.967 295.803 109.508 297.023 109.43L299.191 109.293V110.084C299.191 111.217 298.205 112.086 296.887 112.086C295.9 112.086 295.207 111.588 295.207 110.768ZM303.895 114H306.746V99.1367H303.895V114ZM315.781 114.166C317.188 114.166 318.32 113.57 318.867 112.574H319.043V114H321.855V106.656C321.855 104.361 320.244 103.014 317.393 103.014C314.688 103.014 312.91 104.264 312.686 106.148L312.676 106.236H315.312L315.332 106.197C315.557 105.562 316.211 105.201 317.236 105.201C318.408 105.201 319.043 105.729 319.043 106.656V107.545L316.445 107.701C313.77 107.857 312.275 108.99 312.275 110.924V110.943C312.275 112.896 313.73 114.166 315.781 114.166ZM315.059 110.768V110.748C315.059 109.967 315.654 109.508 316.875 109.43L319.043 109.293V110.084C319.043 111.217 318.057 112.086 316.738 112.086C315.752 112.086 315.059 111.588 315.059 110.768ZM327.926 114.225C330.68 114.225 332.643 112.838 332.643 110.709V110.699C332.643 109.107 331.637 108.209 329.488 107.75L327.701 107.369C326.588 107.125 326.188 106.793 326.188 106.217V106.207C326.188 105.484 326.891 105.025 327.877 105.025C328.941 105.025 329.576 105.562 329.732 106.139L329.742 106.188H332.389V106.148C332.271 104.42 330.709 103.014 327.887 103.014C325.201 103.014 323.404 104.361 323.404 106.383V106.393C323.404 108.004 324.42 109.01 326.471 109.449L328.268 109.83C329.361 110.074 329.791 110.436 329.791 111.012V111.031C329.791 111.744 329.049 112.213 327.955 112.213C326.832 112.213 326.178 111.734 325.953 111.07L325.934 111.031H323.131L323.141 111.07C323.346 112.916 325.006 114.225 327.926 114.225ZM338.059 114.225C340.812 114.225 342.775 112.838 342.775 110.709V110.699C342.775 109.107 341.77 108.209 339.621 107.75L337.834 107.369C336.721 107.125 336.32 106.793 336.32 106.217V106.207C336.32 105.484 337.023 105.025 338.01 105.025C339.074 105.025 339.709 105.562 339.865 106.139L339.875 106.188H342.521V106.148C342.404 104.42 340.842 103.014 338.02 103.014C335.334 103.014 333.537 104.361 333.537 106.383V106.393C333.537 108.004 334.553 109.01 336.604 109.449L338.4 109.83C339.494 110.074 339.924 110.436 339.924 111.012V111.031C339.924 111.744 339.182 112.213 338.088 112.213C336.965 112.213 336.311 111.734 336.086 111.07L336.066 111.031H333.264L333.273 111.07C333.479 112.916 335.139 114.225 338.059 114.225ZM348.836 114.225C351.98 114.225 353.367 112.408 353.699 111.061L353.719 110.963H351.062L351.033 111.021C350.838 111.432 350.145 112.096 348.895 112.096C347.381 112.096 346.434 111.07 346.404 109.303H353.807V108.414C353.807 105.162 351.854 103.014 348.719 103.014C345.584 103.014 343.582 105.211 343.582 108.629V108.639C343.582 112.086 345.564 114.225 348.836 114.225ZM348.768 105.152C350.008 105.152 350.896 105.953 351.072 107.516H346.434C346.609 105.992 347.527 105.152 348.768 105.152ZM359.604 114.039C360.15 114.039 360.678 113.98 361.029 113.912V111.793C360.756 111.822 360.561 111.842 360.189 111.842C359.223 111.842 358.812 111.412 358.812 110.445V105.396H361.029V103.248H358.812V100.68H355.932V103.248H354.271V105.396H355.932V111.1C355.932 113.189 356.986 114.039 359.604 114.039ZM366.582 114.225C369.336 114.225 371.299 112.838 371.299 110.709V110.699C371.299 109.107 370.293 108.209 368.145 107.75L366.357 107.369C365.244 107.125 364.844 106.793 364.844 106.217V106.207C364.844 105.484 365.547 105.025 366.533 105.025C367.598 105.025 368.232 105.562 368.389 106.139L368.398 106.188H371.045V106.148C370.928 104.42 369.365 103.014 366.543 103.014C363.857 103.014 362.061 104.361 362.061 106.383V106.393C362.061 108.004 363.076 109.01 365.127 109.449L366.924 109.83C368.018 110.074 368.447 110.436 368.447 111.012V111.031C368.447 111.744 367.705 112.213 366.611 112.213C365.488 112.213 364.834 111.734 364.609 111.07L364.59 111.031H361.787L361.797 111.07C362.002 112.916 363.662 114.225 366.582 114.225Z" fill="#141414"/>
<path d="M67.9709 145H69.8069L70.8303 141.953H75.1428L76.1584 145H78.0022L73.9319 133.727H72.0412L67.9709 145ZM72.9162 135.703H73.0491L74.6741 140.547H71.2991L72.9162 135.703ZM84.8156 145H86.5422L88.2922 138.672H88.425L90.1828 145H91.925L94.2609 136.516H92.5812L91.0656 143.062H90.9328L89.1828 136.516H87.5734L85.8234 143.062H85.6984L84.175 136.516H82.4719L84.8156 145ZM97.6091 145.141C98.7341 145.141 99.6247 144.656 100.125 143.797H100.257V145H101.937V139.195C101.937 137.414 100.734 136.352 98.6012 136.352C96.6716 136.352 95.3356 137.281 95.1325 138.672L95.1247 138.727H96.7575L96.7653 138.695C96.9684 138.094 97.5856 137.75 98.5231 137.75C99.6716 137.75 100.257 138.266 100.257 139.195V139.945L97.9606 140.078C95.9372 140.203 94.7966 141.086 94.7966 142.602V142.617C94.7966 144.156 95.9919 145.141 97.6091 145.141ZM96.4841 142.547V142.531C96.4841 141.766 97.0153 141.344 98.1872 141.273L100.257 141.141V141.867C100.257 142.961 99.3278 143.789 98.0622 143.789C97.1481 143.789 96.4841 143.328 96.4841 142.547ZM103.926 145H105.621V133.188H103.926V145ZM107.743 145H109.438V133.188H107.743V145ZM115.044 145.164C117.216 145.164 118.388 143.914 118.669 142.797L118.685 142.727L117.052 142.734L117.021 142.797C116.817 143.234 116.169 143.773 115.083 143.773C113.685 143.773 112.794 142.828 112.763 141.203H118.778V140.609C118.778 138.062 117.325 136.352 114.958 136.352C112.591 136.352 111.06 138.125 111.06 140.773V140.781C111.06 143.469 112.56 145.164 115.044 145.164ZM114.966 137.742C116.114 137.742 116.966 138.477 117.099 139.992H112.786C112.935 138.531 113.81 137.742 114.966 137.742ZM123.517 145.055C123.845 145.055 124.158 145.016 124.431 144.969V143.617C124.197 143.641 124.048 143.648 123.791 143.648C122.955 143.648 122.611 143.273 122.611 142.359V137.852H124.431V136.516H122.611V134.375H120.884V136.516H119.556V137.852H120.884V142.766C120.884 144.398 121.65 145.055 123.517 145.055ZM129.901 145H131.596V133.188H129.901V145ZM137.202 145.164C139.374 145.164 140.546 143.914 140.827 142.797L140.843 142.727L139.21 142.734L139.179 142.797C138.976 143.234 138.327 143.773 137.241 143.773C135.843 143.773 134.952 142.828 134.921 141.203H140.937V140.609C140.937 138.062 139.483 136.352 137.116 136.352C134.749 136.352 133.218 138.125 133.218 140.773V140.781C133.218 143.469 134.718 145.164 137.202 145.164ZM137.124 137.742C138.272 137.742 139.124 138.477 139.257 139.992H134.944C135.093 138.531 135.968 137.742 137.124 137.742ZM145.675 145.055C146.003 145.055 146.316 145.016 146.589 144.969V143.617C146.355 143.641 146.207 143.648 145.949 143.648C145.113 143.648 144.769 143.273 144.769 142.359V137.852H146.589V136.516H144.769V134.375H143.042V136.516H141.714V137.852H143.042V142.766C143.042 144.398 143.808 145.055 145.675 145.055ZM151.047 145.164C153.062 145.164 154.562 144.094 154.562 142.523V142.508C154.562 141.281 153.781 140.586 152.148 140.203L150.805 139.898C149.852 139.672 149.461 139.344 149.461 138.812V138.797C149.461 138.117 150.133 137.656 151.062 137.656C152.016 137.656 152.617 138.102 152.781 138.695V138.711H154.398V138.703C154.25 137.32 153.008 136.352 151.07 136.352C149.148 136.352 147.773 137.414 147.773 138.891V138.898C147.773 140.141 148.516 140.867 150.117 141.234L151.469 141.547C152.453 141.773 152.852 142.133 152.852 142.664V142.68C152.852 143.375 152.125 143.852 151.078 143.852C150.07 143.852 149.453 143.422 149.242 142.781L149.234 142.773H147.539V142.781C147.703 144.203 149 145.164 151.047 145.164ZM160.829 147.984C162.548 147.984 163.407 147.352 164.126 145.328L167.282 136.516H165.501L163.384 143.297H163.235L161.11 136.516H159.282L162.36 145.008L162.235 145.445C161.985 146.305 161.509 146.641 160.72 146.641C160.524 146.641 160.313 146.633 160.149 146.609V147.945C160.368 147.969 160.618 147.984 160.829 147.984ZM171.787 145.164C174.271 145.164 175.794 143.5 175.794 140.766V140.75C175.794 138.016 174.263 136.352 171.787 136.352C169.302 136.352 167.771 138.023 167.771 140.75V140.766C167.771 143.5 169.294 145.164 171.787 145.164ZM171.787 143.75C170.326 143.75 169.505 142.648 169.505 140.766V140.75C169.505 138.867 170.326 137.766 171.787 137.766C173.24 137.766 174.068 138.867 174.068 140.75V140.766C174.068 142.641 173.24 143.75 171.787 143.75ZM180.166 145.164C181.4 145.164 182.26 144.633 182.666 143.719H182.799V145H184.486V136.516H182.799V141.492C182.799 142.859 182.072 143.711 180.713 143.711C179.471 143.711 178.955 143.016 178.955 141.609V136.516H177.26V142.008C177.26 144.016 178.252 145.164 180.166 145.164ZM193.432 145.164C195.448 145.164 196.948 144.094 196.948 142.523V142.508C196.948 141.281 196.167 140.586 194.534 140.203L193.19 139.898C192.237 139.672 191.847 139.344 191.847 138.812V138.797C191.847 138.117 192.518 137.656 193.448 137.656C194.401 137.656 195.003 138.102 195.167 138.695V138.711H196.784V138.703C196.636 137.32 195.393 136.352 193.456 136.352C191.534 136.352 190.159 137.414 190.159 138.891V138.898C190.159 140.141 190.901 140.867 192.503 141.234L193.854 141.547C194.839 141.773 195.237 142.133 195.237 142.664V142.68C195.237 143.375 194.511 143.852 193.464 143.852C192.456 143.852 191.839 143.422 191.628 142.781L191.62 142.773H189.925V142.781C190.089 144.203 191.386 145.164 193.432 145.164ZM201.632 145.055C201.96 145.055 202.273 145.016 202.546 144.969V143.617C202.312 143.641 202.163 143.648 201.906 143.648C201.07 143.648 200.726 143.273 200.726 142.359V137.852H202.546V136.516H200.726V134.375H198.999V136.516H197.671V137.852H198.999V142.766C198.999 144.398 199.765 145.055 201.632 145.055ZM207.543 145.164C210.027 145.164 211.551 143.5 211.551 140.766V140.75C211.551 138.016 210.019 136.352 207.543 136.352C205.058 136.352 203.527 138.023 203.527 140.75V140.766C203.527 143.5 205.051 145.164 207.543 145.164ZM207.543 143.75C206.082 143.75 205.262 142.648 205.262 140.766V140.75C205.262 138.867 206.082 137.766 207.543 137.766C208.996 137.766 209.824 138.867 209.824 140.75V140.766C209.824 142.641 208.996 143.75 207.543 143.75ZM213.094 145H214.789V139.93C214.789 138.703 215.672 137.906 216.969 137.906C217.289 137.906 217.578 137.945 217.883 138.008V136.445C217.711 136.406 217.414 136.367 217.141 136.367C216.008 136.367 215.219 136.898 214.914 137.797H214.789V136.516H213.094V145ZM222.364 145.164C224.536 145.164 225.708 143.914 225.989 142.797L226.005 142.727L224.372 142.734L224.341 142.797C224.137 143.234 223.489 143.773 222.403 143.773C221.005 143.773 220.114 142.828 220.083 141.203H226.098V140.609C226.098 138.062 224.645 136.352 222.278 136.352C219.911 136.352 218.38 138.125 218.38 140.773V140.781C218.38 143.469 219.88 145.164 222.364 145.164ZM222.286 137.742C223.434 137.742 224.286 138.477 224.419 139.992H220.106C220.255 138.531 221.13 137.742 222.286 137.742ZM227.337 147.93H228.533L229.829 143.344H228.025L227.337 147.93ZM239.182 145.164C241.197 145.164 242.697 144.094 242.697 142.523V142.508C242.697 141.281 241.916 140.586 240.283 140.203L238.94 139.898C237.987 139.672 237.596 139.344 237.596 138.812V138.797C237.596 138.117 238.268 137.656 239.197 137.656C240.151 137.656 240.752 138.102 240.916 138.695V138.711H242.533V138.703C242.385 137.32 241.143 136.352 239.205 136.352C237.283 136.352 235.908 137.414 235.908 138.891V138.898C235.908 140.141 236.651 140.867 238.252 141.234L239.604 141.547C240.588 141.773 240.987 142.133 240.987 142.664V142.68C240.987 143.375 240.26 143.852 239.213 143.852C238.205 143.852 237.588 143.422 237.377 142.781L237.369 142.773H235.674V142.781C235.838 144.203 237.135 145.164 239.182 145.164ZM247.803 145.164C249.975 145.164 251.147 143.914 251.428 142.797L251.444 142.727L249.811 142.734L249.78 142.797C249.577 143.234 248.928 143.773 247.842 143.773C246.444 143.773 245.553 142.828 245.522 141.203H251.538V140.609C251.538 138.062 250.085 136.352 247.717 136.352C245.35 136.352 243.819 138.125 243.819 140.773V140.781C243.819 143.469 245.319 145.164 247.803 145.164ZM247.725 137.742C248.874 137.742 249.725 138.477 249.858 139.992H245.546C245.694 138.531 246.569 137.742 247.725 137.742ZM253.073 145H254.769V140.023C254.769 138.656 255.542 137.805 256.784 137.805C258.027 137.805 258.612 138.5 258.612 139.906V145H260.3V139.508C260.3 137.484 259.253 136.352 257.355 136.352C256.12 136.352 255.308 136.898 254.894 137.805H254.769V136.516H253.073V145ZM265.281 145.141C266.468 145.141 267.398 144.594 267.89 143.664H268.023V145H269.711V133.188H268.023V137.859H267.89C267.437 136.945 266.445 136.367 265.281 136.367C263.125 136.367 261.765 138.062 261.765 140.75V140.766C261.765 143.43 263.148 145.141 265.281 145.141ZM265.765 143.695C264.343 143.695 263.492 142.586 263.492 140.766V140.75C263.492 138.93 264.343 137.82 265.765 137.82C267.172 137.82 268.047 138.938 268.047 140.75V140.766C268.047 142.578 267.179 143.695 265.765 143.695ZM277.977 145.141C279.102 145.141 279.993 144.656 280.493 143.797H280.626V145H282.305V139.195C282.305 137.414 281.102 136.352 278.969 136.352C277.04 136.352 275.704 137.281 275.501 138.672L275.493 138.727H277.126L277.133 138.695C277.337 138.094 277.954 137.75 278.891 137.75C280.04 137.75 280.626 138.266 280.626 139.195V139.945L278.329 140.078C276.305 140.203 275.165 141.086 275.165 142.602V142.617C275.165 144.156 276.36 145.141 277.977 145.141ZM276.852 142.547V142.531C276.852 141.766 277.383 141.344 278.555 141.273L280.626 141.141V141.867C280.626 142.961 279.696 143.789 278.43 143.789C277.516 143.789 276.852 143.328 276.852 142.547ZM284.216 145H285.911V140.023C285.911 138.656 286.685 137.805 287.927 137.805C289.169 137.805 289.755 138.5 289.755 139.906V145H291.442V139.508C291.442 137.484 290.396 136.352 288.497 136.352C287.263 136.352 286.45 136.898 286.036 137.805H285.911V136.516H284.216V145ZM296.423 145.141C297.611 145.141 298.541 144.594 299.033 143.664H299.166V145H300.853V133.188H299.166V137.859H299.033C298.58 136.945 297.587 136.367 296.423 136.367C294.267 136.367 292.908 138.062 292.908 140.75V140.766C292.908 143.43 294.291 145.141 296.423 145.141ZM296.908 143.695C295.486 143.695 294.634 142.586 294.634 140.766V140.75C294.634 138.93 295.486 137.82 296.908 137.82C298.314 137.82 299.189 138.938 299.189 140.75V140.766C299.189 142.578 298.322 143.695 296.908 143.695ZM306.792 145H308.487V139.93C308.487 138.703 309.37 137.906 310.667 137.906C310.987 137.906 311.276 137.945 311.581 138.008V136.445C311.409 136.406 311.112 136.367 310.838 136.367C309.706 136.367 308.917 136.898 308.612 137.797H308.487V136.516H306.792V145ZM316.062 145.164C318.233 145.164 319.405 143.914 319.687 142.797L319.702 142.727L318.069 142.734L318.038 142.797C317.835 143.234 317.187 143.773 316.101 143.773C314.702 143.773 313.812 142.828 313.78 141.203H319.796V140.609C319.796 138.062 318.343 136.352 315.976 136.352C313.608 136.352 312.077 138.125 312.077 140.773V140.781C312.077 143.469 313.577 145.164 316.062 145.164ZM315.983 137.742C317.132 137.742 317.983 138.477 318.116 139.992H313.804C313.952 138.531 314.827 137.742 315.983 137.742ZM324.902 145.164C327.003 145.164 328.214 144.031 328.519 142.383L328.535 142.312H326.91L326.894 142.352C326.621 143.266 325.964 143.75 324.902 143.75C323.503 143.75 322.636 142.609 322.636 140.734V140.719C322.636 138.891 323.488 137.766 324.902 137.766C326.027 137.766 326.714 138.391 326.902 139.227L326.91 139.25L328.535 139.242V139.203C328.3 137.555 327.027 136.352 324.894 136.352C322.417 136.352 320.91 138.031 320.91 140.719V140.734C320.91 143.477 322.425 145.164 324.902 145.164ZM333.539 145.164C335.711 145.164 336.883 143.914 337.164 142.797L337.18 142.727L335.547 142.734L335.516 142.797C335.312 143.234 334.664 143.773 333.578 143.773C332.18 143.773 331.289 142.828 331.258 141.203H337.273V140.609C337.273 138.062 335.82 136.352 333.453 136.352C331.086 136.352 329.555 138.125 329.555 140.773V140.781C329.555 143.469 331.055 145.164 333.539 145.164ZM333.461 137.742C334.609 137.742 335.461 138.477 335.594 139.992H331.281C331.43 138.531 332.305 137.742 333.461 137.742ZM339.692 135C340.27 135 340.754 134.523 340.754 133.945C340.754 133.359 340.27 132.883 339.692 132.883C339.106 132.883 338.629 133.359 338.629 133.945C338.629 134.523 339.106 135 339.692 135ZM338.84 145H340.528V136.516H338.84V145ZM344.852 145H346.657L349.72 136.516H347.938L345.829 143.281H345.696L343.579 136.516H341.782L344.852 145ZM354.177 145.164C356.349 145.164 357.521 143.914 357.802 142.797L357.818 142.727L356.185 142.734L356.154 142.797C355.951 143.234 355.302 143.773 354.216 143.773C352.818 143.773 351.927 142.828 351.896 141.203H357.912V140.609C357.912 138.062 356.458 136.352 354.091 136.352C351.724 136.352 350.193 138.125 350.193 140.773V140.781C350.193 143.469 351.693 145.164 354.177 145.164ZM354.099 137.742C355.247 137.742 356.099 138.477 356.232 139.992H351.919C352.068 138.531 352.943 137.742 354.099 137.742ZM366.436 145.141C367.623 145.141 368.553 144.594 369.045 143.664H369.178V145H370.866V133.188H369.178V137.859H369.045C368.592 136.945 367.6 136.367 366.436 136.367C364.28 136.367 362.92 138.062 362.92 140.75V140.766C362.92 143.43 364.303 145.141 366.436 145.141ZM366.92 143.695C365.498 143.695 364.647 142.586 364.647 140.766V140.75C364.647 138.93 365.498 137.82 366.92 137.82C368.327 137.82 369.202 138.938 369.202 140.75V140.766C369.202 142.578 368.334 143.695 366.92 143.695ZM373.792 135C374.37 135 374.854 134.523 374.854 133.945C374.854 133.359 374.37 132.883 373.792 132.883C373.206 132.883 372.729 133.359 372.729 133.945C372.729 134.523 373.206 135 373.792 135ZM372.94 145H374.628V136.516H372.94V145ZM380.203 147.992C382.609 147.992 384.132 146.758 384.132 144.828V136.516H382.445V137.906H382.343C381.851 136.953 380.929 136.367 379.742 136.367C377.538 136.367 376.187 138.078 376.187 140.5V140.516C376.187 142.906 377.531 144.586 379.71 144.586C380.874 144.586 381.812 144.07 382.328 143.148H382.453V144.82C382.453 145.977 381.624 146.633 380.226 146.633C379.078 146.633 378.39 146.219 378.249 145.633L378.242 145.617H376.531L376.515 145.633C376.718 147.047 378.046 147.992 380.203 147.992ZM380.179 143.188C378.734 143.188 377.921 142.086 377.921 140.508V140.492C377.921 138.914 378.734 137.805 380.179 137.805C381.609 137.805 382.484 138.914 382.484 140.492V140.508C382.484 142.094 381.617 143.188 380.179 143.188ZM386.972 135C387.551 135 388.035 134.523 388.035 133.945C388.035 133.359 387.551 132.883 386.972 132.883C386.387 132.883 385.91 133.359 385.91 133.945C385.91 134.523 386.387 135 386.972 135ZM386.121 145H387.808V136.516H386.121V145ZM393 145.055C393.328 145.055 393.641 145.016 393.914 144.969V143.617C393.68 143.641 393.532 143.648 393.274 143.648C392.438 143.648 392.094 143.273 392.094 142.359V137.852H393.914V136.516H392.094V134.375H390.367V136.516H389.039V137.852H390.367V142.766C390.367 144.398 391.133 145.055 393 145.055ZM397.739 145.141C398.864 145.141 399.755 144.656 400.255 143.797H400.388V145H402.067V139.195C402.067 137.414 400.864 136.352 398.731 136.352C396.802 136.352 395.466 137.281 395.263 138.672L395.255 138.727H396.888L396.895 138.695C397.098 138.094 397.716 137.75 398.653 137.75C399.802 137.75 400.388 138.266 400.388 139.195V139.945L398.091 140.078C396.067 140.203 394.927 141.086 394.927 142.602V142.617C394.927 144.156 396.122 145.141 397.739 145.141ZM396.614 142.547V142.531C396.614 141.766 397.145 141.344 398.317 141.273L400.388 141.141V141.867C400.388 142.961 399.458 143.789 398.192 143.789C397.278 143.789 396.614 143.328 396.614 142.547ZM404.056 145H405.751V133.188H404.056V145ZM102.413 165.141C103.538 165.141 104.429 164.656 104.929 163.797H105.062V165H106.742V159.195C106.742 157.414 105.538 156.352 103.406 156.352C101.476 156.352 100.14 157.281 99.9369 158.672L99.9291 158.727H101.562L101.57 158.695C101.773 158.094 102.39 157.75 103.327 157.75C104.476 157.75 105.062 158.266 105.062 159.195V159.945L102.765 160.078C100.742 160.203 99.6009 161.086 99.6009 162.602V162.617C99.6009 164.156 100.796 165.141 102.413 165.141ZM101.288 162.547V162.531C101.288 161.766 101.82 161.344 102.992 161.273L105.062 161.141V161.867C105.062 162.961 104.132 163.789 102.867 163.789C101.952 163.789 101.288 163.328 101.288 162.547ZM111.738 165.164C113.754 165.164 115.254 164.094 115.254 162.523V162.508C115.254 161.281 114.472 160.586 112.84 160.203L111.496 159.898C110.543 159.672 110.152 159.344 110.152 158.812V158.797C110.152 158.117 110.824 157.656 111.754 157.656C112.707 157.656 113.308 158.102 113.472 158.695V158.711H115.09V158.703C114.941 157.32 113.699 156.352 111.762 156.352C109.84 156.352 108.465 157.414 108.465 158.891V158.898C108.465 160.141 109.207 160.867 110.808 161.234L112.16 161.547C113.144 161.773 113.543 162.133 113.543 162.664V162.68C113.543 163.375 112.816 163.852 111.769 163.852C110.762 163.852 110.144 163.422 109.933 162.781L109.926 162.773H108.23V162.781C108.394 164.203 109.691 165.164 111.738 165.164ZM119.727 165.164C121.743 165.164 123.243 164.094 123.243 162.523V162.508C123.243 161.281 122.461 160.586 120.828 160.203L119.485 159.898C118.532 159.672 118.141 159.344 118.141 158.812V158.797C118.141 158.117 118.813 157.656 119.743 157.656C120.696 157.656 121.297 158.102 121.461 158.695V158.711H123.078V158.703C122.93 157.32 121.688 156.352 119.75 156.352C117.828 156.352 116.453 157.414 116.453 158.891V158.898C116.453 160.141 117.196 160.867 118.797 161.234L120.149 161.547C121.133 161.773 121.532 162.133 121.532 162.664V162.68C121.532 163.375 120.805 163.852 119.758 163.852C118.75 163.852 118.133 163.422 117.922 162.781L117.914 162.773H116.219V162.781C116.383 164.203 117.68 165.164 119.727 165.164ZM128.348 165.164C130.52 165.164 131.692 163.914 131.973 162.797L131.989 162.727L130.356 162.734L130.325 162.797C130.122 163.234 129.473 163.773 128.387 163.773C126.989 163.773 126.098 162.828 126.067 161.203H132.083V160.609C132.083 158.062 130.63 156.352 128.262 156.352C125.895 156.352 124.364 158.125 124.364 160.773V160.781C124.364 163.469 125.864 165.164 128.348 165.164ZM128.27 157.742C129.419 157.742 130.27 158.477 130.403 159.992H126.091C126.239 158.531 127.114 157.742 128.27 157.742ZM136.822 165.055C137.15 165.055 137.462 165.016 137.736 164.969V163.617C137.501 163.641 137.353 163.648 137.095 163.648C136.259 163.648 135.915 163.273 135.915 162.359V157.852H137.736V156.516H135.915V154.375H134.189V156.516H132.861V157.852H134.189V162.766C134.189 164.398 134.954 165.055 136.822 165.055ZM142.193 165.164C144.209 165.164 145.709 164.094 145.709 162.523V162.508C145.709 161.281 144.927 160.586 143.295 160.203L141.951 159.898C140.998 159.672 140.607 159.344 140.607 158.812V158.797C140.607 158.117 141.279 157.656 142.209 157.656C143.162 157.656 143.763 158.102 143.927 158.695V158.711H145.545V158.703C145.396 157.32 144.154 156.352 142.217 156.352C140.295 156.352 138.92 157.414 138.92 158.891V158.898C138.92 160.141 139.662 160.867 141.263 161.234L142.615 161.547C143.599 161.773 143.998 162.133 143.998 162.664V162.68C143.998 163.375 143.271 163.852 142.224 163.852C141.217 163.852 140.599 163.422 140.388 162.781L140.381 162.773H138.685V162.781C138.849 164.203 140.146 165.164 142.193 165.164ZM151.225 165H152.921V153.188H151.225V165ZM155.847 155C156.425 155 156.909 154.523 156.909 153.945C156.909 153.359 156.425 152.883 155.847 152.883C155.261 152.883 154.784 153.359 154.784 153.945C154.784 154.523 155.261 155 155.847 155ZM154.995 165H156.683V156.516H154.995V165ZM158.75 165H160.445V161.914L161.172 161.188L164.093 165H166.156L162.382 160.094L165.922 156.516H163.937L160.57 160.094H160.445V153.188H158.75V165ZM170.348 165.164C172.52 165.164 173.692 163.914 173.973 162.797L173.988 162.727L172.356 162.734L172.324 162.797C172.121 163.234 171.473 163.773 170.387 163.773C168.988 163.773 168.098 162.828 168.067 161.203H174.082V160.609C174.082 158.062 172.629 156.352 170.262 156.352C167.895 156.352 166.363 158.125 166.363 160.773V160.781C166.363 163.469 167.863 165.164 170.348 165.164ZM170.27 157.742C171.418 157.742 172.27 158.477 172.402 159.992H168.09C168.238 158.531 169.113 157.742 170.27 157.742ZM183.083 165.164C185.185 165.164 186.396 164.031 186.7 162.383L186.716 162.312H185.091L185.075 162.352C184.802 163.266 184.146 163.75 183.083 163.75C181.685 163.75 180.817 162.609 180.817 160.734V160.719C180.817 158.891 181.669 157.766 183.083 157.766C184.208 157.766 184.896 158.391 185.083 159.227L185.091 159.25L186.716 159.242V159.203C186.482 157.555 185.208 156.352 183.075 156.352C180.599 156.352 179.091 158.031 179.091 160.719V160.734C179.091 163.477 180.607 165.164 183.083 165.164ZM188.158 165H189.853V159.93C189.853 158.703 190.736 157.906 192.033 157.906C192.353 157.906 192.642 157.945 192.947 158.008V156.445C192.775 156.406 192.478 156.367 192.205 156.367C191.072 156.367 190.283 156.898 189.978 157.797H189.853V156.516H188.158V165ZM195.022 167.984C196.74 167.984 197.6 167.352 198.318 165.328L201.475 156.516H199.693L197.576 163.297H197.428L195.303 156.516H193.475L196.553 165.008L196.428 165.445C196.178 166.305 195.701 166.641 194.912 166.641C194.717 166.641 194.506 166.633 194.342 166.609V167.945C194.561 167.969 194.811 167.984 195.022 167.984ZM202.713 167.828H204.409V163.656H204.534C204.987 164.57 205.979 165.141 207.143 165.141C209.299 165.141 210.659 163.453 210.659 160.766V160.75C210.659 158.078 209.284 156.367 207.143 156.367C205.956 156.367 205.026 156.922 204.534 157.852H204.409V156.516H202.713V167.828ZM206.667 163.695C205.253 163.695 204.378 162.578 204.378 160.766V160.75C204.378 158.938 205.253 157.82 206.667 157.82C208.081 157.82 208.932 158.922 208.932 160.75V160.766C208.932 162.586 208.081 163.695 206.667 163.695ZM215.421 165.055C215.749 165.055 216.062 165.016 216.335 164.969V163.617C216.101 163.641 215.952 163.648 215.694 163.648C214.858 163.648 214.515 163.273 214.515 162.359V157.852H216.335V156.516H214.515V154.375H212.788V156.516H211.46V157.852H212.788V162.766C212.788 164.398 213.554 165.055 215.421 165.055ZM221.332 165.164C223.816 165.164 225.339 163.5 225.339 160.766V160.75C225.339 158.016 223.808 156.352 221.332 156.352C218.847 156.352 217.316 158.023 217.316 160.75V160.766C217.316 163.5 218.839 165.164 221.332 165.164ZM221.332 163.75C219.871 163.75 219.05 162.648 219.05 160.766V160.75C219.05 158.867 219.871 157.766 221.332 157.766C222.785 157.766 223.613 158.867 223.613 160.75V160.766C223.613 162.641 222.785 163.75 221.332 163.75ZM230.453 165.164C232.555 165.164 233.766 164.031 234.07 162.383L234.086 162.312H232.461L232.445 162.352C232.172 163.266 231.516 163.75 230.453 163.75C229.055 163.75 228.188 162.609 228.188 160.734V160.719C228.188 158.891 229.039 157.766 230.453 157.766C231.578 157.766 232.266 158.391 232.453 159.227L232.461 159.25L234.086 159.242V159.203C233.852 157.555 232.578 156.352 230.445 156.352C227.969 156.352 226.461 158.031 226.461 160.719V160.734C226.461 163.477 227.977 165.164 230.453 165.164ZM238.356 165.164C239.59 165.164 240.45 164.633 240.856 163.719H240.989V165H242.676V156.516H240.989V161.492C240.989 162.859 240.262 163.711 238.903 163.711C237.661 163.711 237.145 163.016 237.145 161.609V156.516H235.45V162.008C235.45 164.016 236.442 165.164 238.356 165.164ZM244.642 165H246.337V159.93C246.337 158.703 247.22 157.906 248.517 157.906C248.837 157.906 249.126 157.945 249.431 158.008V156.445C249.259 156.406 248.962 156.367 248.688 156.367C247.556 156.367 246.767 156.898 246.462 157.797H246.337V156.516H244.642V165ZM250.693 165H252.388V159.93C252.388 158.703 253.271 157.906 254.568 157.906C254.888 157.906 255.177 157.945 255.482 158.008V156.445C255.31 156.406 255.013 156.367 254.74 156.367C253.607 156.367 252.818 156.898 252.513 157.797H252.388V156.516H250.693V165ZM259.963 165.164C262.135 165.164 263.307 163.914 263.588 162.797L263.603 162.727L261.971 162.734L261.939 162.797C261.736 163.234 261.088 163.773 260.002 163.773C258.603 163.773 257.713 162.828 257.682 161.203H263.697V160.609C263.697 158.062 262.244 156.352 259.877 156.352C257.51 156.352 255.978 158.125 255.978 160.773V160.781C255.978 163.469 257.478 165.164 259.963 165.164ZM259.885 157.742C261.033 157.742 261.885 158.477 262.018 159.992H257.705C257.853 158.531 258.728 157.742 259.885 157.742ZM265.233 165H266.928V160.023C266.928 158.656 267.702 157.805 268.944 157.805C270.186 157.805 270.772 158.5 270.772 159.906V165H272.459V159.508C272.459 157.484 271.413 156.352 269.514 156.352C268.28 156.352 267.467 156.898 267.053 157.805H266.928V156.516H265.233V165ZM277.917 165.164C280.018 165.164 281.229 164.031 281.534 162.383L281.55 162.312H279.925L279.909 162.352C279.636 163.266 278.979 163.75 277.917 163.75C276.518 163.75 275.651 162.609 275.651 160.734V160.719C275.651 158.891 276.503 157.766 277.917 157.766C279.042 157.766 279.729 158.391 279.917 159.227L279.925 159.25L281.55 159.242V159.203C281.315 157.555 280.042 156.352 277.909 156.352C275.432 156.352 273.925 158.031 273.925 160.719V160.734C273.925 163.477 275.44 165.164 277.917 165.164ZM283.874 155C284.452 155 284.937 154.523 284.937 153.945C284.937 153.359 284.452 152.883 283.874 152.883C283.288 152.883 282.812 153.359 282.812 153.945C282.812 154.523 283.288 155 283.874 155ZM283.023 165H284.71V156.516H283.023V165ZM290.262 165.164C292.433 165.164 293.605 163.914 293.887 162.797L293.902 162.727L292.269 162.734L292.238 162.797C292.035 163.234 291.387 163.773 290.301 163.773C288.902 163.773 288.012 162.828 287.98 161.203H293.996V160.609C293.996 158.062 292.543 156.352 290.176 156.352C287.808 156.352 286.277 158.125 286.277 160.773V160.781C286.277 163.469 287.777 165.164 290.262 165.164ZM290.183 157.742C291.332 157.742 292.183 158.477 292.316 159.992H288.004C288.152 158.531 289.027 157.742 290.183 157.742ZM298.617 165.164C300.633 165.164 302.133 164.094 302.133 162.523V162.508C302.133 161.281 301.352 160.586 299.719 160.203L298.375 159.898C297.422 159.672 297.032 159.344 297.032 158.812V158.797C297.032 158.117 297.703 157.656 298.633 157.656C299.586 157.656 300.188 158.102 300.352 158.695V158.711H301.969V158.703C301.821 157.32 300.578 156.352 298.641 156.352C296.719 156.352 295.344 157.414 295.344 158.891V158.898C295.344 160.141 296.086 160.867 297.688 161.234L299.039 161.547C300.024 161.773 300.422 162.133 300.422 162.664V162.68C300.422 163.375 299.696 163.852 298.649 163.852C297.641 163.852 297.024 163.422 296.813 162.781L296.805 162.773H295.11V162.781C295.274 164.203 296.571 165.164 298.617 165.164ZM309.9 165.141C311.025 165.141 311.915 164.656 312.415 163.797H312.548V165H314.228V159.195C314.228 157.414 313.025 156.352 310.892 156.352C308.962 156.352 307.626 157.281 307.423 158.672L307.415 158.727H309.048L309.056 158.695C309.259 158.094 309.876 157.75 310.814 157.75C311.962 157.75 312.548 158.266 312.548 159.195V159.945L310.251 160.078C308.228 160.203 307.087 161.086 307.087 162.602V162.617C307.087 164.156 308.283 165.141 309.9 165.141ZM308.775 162.547V162.531C308.775 161.766 309.306 161.344 310.478 161.273L312.548 161.141V161.867C312.548 162.961 311.618 163.789 310.353 163.789C309.439 163.789 308.775 163.328 308.775 162.547ZM316.138 165H317.834V160.023C317.834 158.656 318.607 157.805 319.849 157.805C321.092 157.805 321.678 158.5 321.678 159.906V165H323.365V159.508C323.365 157.484 322.318 156.352 320.42 156.352C319.185 156.352 318.373 156.898 317.959 157.805H317.834V156.516H316.138V165ZM328.346 165.141C329.533 165.141 330.463 164.594 330.955 163.664H331.088V165H332.776V153.188H331.088V157.859H330.955C330.502 156.945 329.51 156.367 328.346 156.367C326.19 156.367 324.83 158.062 324.83 160.75V160.766C324.83 163.43 326.213 165.141 328.346 165.141ZM328.83 163.695C327.408 163.695 326.557 162.586 326.557 160.766V160.75C326.557 158.93 327.408 157.82 328.83 157.82C330.237 157.82 331.112 158.938 331.112 160.75V160.766C331.112 162.578 330.244 163.695 328.83 163.695ZM338.909 165H340.612V156.812H340.737L346.527 165H348.105V153.727H346.402V161.93H346.284L340.487 153.727H338.909V165ZM350.461 165H352.211V160.281H357.054V158.805H352.211V155.234H357.5V153.727H350.461V165ZM362.153 165H363.903V155.234H367.442V153.727H358.606V155.234H362.153V165ZM370.813 165.164C372.829 165.164 374.329 164.094 374.329 162.523V162.508C374.329 161.281 373.547 160.586 371.915 160.203L370.571 159.898C369.618 159.672 369.227 159.344 369.227 158.812V158.797C369.227 158.117 369.899 157.656 370.829 157.656C371.782 157.656 372.383 158.102 372.547 158.695V158.711H374.165V158.703C374.016 157.32 372.774 156.352 370.837 156.352C368.915 156.352 367.54 157.414 367.54 158.891V158.898C367.54 160.141 368.282 160.867 369.883 161.234L371.235 161.547C372.219 161.773 372.618 162.133 372.618 162.664V162.68C372.618 163.375 371.891 163.852 370.844 163.852C369.837 163.852 369.219 163.422 369.008 162.781L369.001 162.773H367.305V162.781C367.469 164.203 368.766 165.164 370.813 165.164Z" fill="#798686"/>
<rect x="212" y="184" width="18" height="6" rx="3" fill="#3396FF"/>
<rect x="240" y="184" width="6" height="6" rx="3" fill="#9EA9A9"/>
<rect x="256" y="184" width="6" height="6" rx="3" fill="#9EA9A9"/>
<rect x="115.5" y="215" width="119" height="28" rx="14" fill="#3396FF"/>
<path fill-rule="evenodd" clip-rule="evenodd" d="M125.5 231.2V228.2H125.501C125.51 226.343 125.571 225.314 126.025 224.518C126.38 223.896 126.896 223.38 127.518 223.025C128.439 222.5 129.673 222.5 132.14 222.5H135.875C136.456 222.5 136.746 222.5 136.989 222.54C138.257 222.749 139.251 223.743 139.46 225.011C139.5 225.254 139.5 225.544 139.5 226.125C139.5 226.706 139.5 226.996 139.46 227.239C139.251 228.507 138.257 229.501 136.989 229.71C136.746 229.75 136.456 229.75 135.875 229.75H135.098C135.275 230.057 135.4 230.398 135.46 230.761C135.5 231.004 135.5 231.294 135.5 231.875C135.5 232.456 135.5 232.746 135.46 232.989C135.251 234.257 134.257 235.251 132.989 235.46C132.746 235.5 132.456 235.5 131.875 235.5H129.367C127.231 235.5 125.5 233.769 125.5 231.633V231.2ZM132.14 224H135.875C136.515 224 136.654 224.005 136.744 224.02C137.378 224.125 137.875 224.622 137.98 225.256C137.995 225.346 138 225.485 138 226.125C138 226.765 137.995 226.904 137.98 226.994C137.875 227.628 137.378 228.125 136.744 228.23C136.654 228.245 136.515 228.25 135.875 228.25H128.883C128.186 228.25 127.538 228.461 127 228.822V228.25H127.001C127.004 227.459 127.016 226.867 127.06 226.383C127.116 225.754 127.217 225.457 127.328 225.261C127.55 224.872 127.872 224.55 128.261 224.328C128.457 224.217 128.754 224.116 129.383 224.06C130.033 224.001 130.879 224 132.14 224ZM131.875 229.75H128.883C127.843 229.75 127 230.593 127 231.633C127 232.94 128.06 234 129.367 234H131.875C132.515 234 132.654 233.995 132.744 233.98C133.378 233.875 133.875 233.378 133.98 232.744C133.995 232.654 134 232.515 134 231.875C134 231.235 133.995 231.096 133.98 231.006C133.875 230.372 133.378 229.875 132.744 229.77C132.654 229.755 132.515 229.75 131.875 229.75Z" fill="white"/>
<path d="M151.387 234.246C154.019 234.246 155.701 232.612 155.701 230.062V228.832H151.606V230.179H153.971L153.964 230.384C153.944 231.785 152.918 232.722 151.414 232.722C149.658 232.722 148.55 231.32 148.55 229.058V229.044C148.55 226.815 149.637 225.414 151.36 225.414C152.624 225.414 153.527 226.043 153.848 227.123L153.869 227.191H155.619L155.612 227.123C155.277 225.195 153.636 223.89 151.36 223.89C148.55 223.89 146.752 225.906 146.752 229.058V229.071C146.752 232.257 148.53 234.246 151.387 234.246ZM160.353 234.15C162.383 234.15 163.381 232.981 163.62 232.018L163.641 231.956H162.021L162 232.004C161.836 232.346 161.31 232.811 160.387 232.811C159.232 232.811 158.507 232.031 158.487 230.691H163.709V230.131C163.709 227.875 162.397 226.385 160.271 226.385C158.145 226.385 156.785 227.923 156.785 230.274V230.281C156.785 232.66 158.131 234.15 160.353 234.15ZM160.291 227.718C161.242 227.718 161.932 228.326 162.048 229.55H158.5C158.63 228.36 159.341 227.718 160.291 227.718ZM167.931 234.034C168.259 234.034 168.574 234.007 168.82 233.959V232.646C168.615 232.667 168.485 232.674 168.245 232.674C167.534 232.674 167.241 232.359 167.241 231.614V227.848H168.82V226.528H167.241V224.696H165.511V226.528H164.349V227.848H165.511V232.018C165.511 233.46 166.215 234.034 167.931 234.034ZM175.444 234.123C176.429 234.123 177.222 233.699 177.632 232.975H177.748V234H179.43V228.894C179.43 227.314 178.35 226.385 176.429 226.385C174.651 226.385 173.448 227.219 173.284 228.477L173.277 228.538H174.884L174.891 228.511C175.062 228.019 175.568 227.738 176.347 227.738C177.263 227.738 177.748 228.148 177.748 228.894V229.536L175.827 229.652C174.009 229.762 172.99 230.541 172.99 231.874V231.888C172.99 233.248 174.023 234.123 175.444 234.123ZM174.672 231.806V231.792C174.672 231.177 175.116 230.828 176.067 230.767L177.748 230.657V231.259C177.748 232.147 176.989 232.817 175.964 232.817C175.212 232.817 174.672 232.441 174.672 231.806ZM186.574 234H188.235L190.231 226.938H190.334L192.344 234H193.998L196.644 224.136H194.818L193.13 231.539H193.034L191.065 224.136H189.5L187.559 231.539H187.456L185.768 224.136H183.929L186.574 234ZM199.108 234.123C200.093 234.123 200.886 233.699 201.296 232.975H201.412V234H203.094V228.894C203.094 227.314 202.014 226.385 200.093 226.385C198.315 226.385 197.112 227.219 196.948 228.477L196.941 228.538H198.548L198.555 228.511C198.725 228.019 199.231 227.738 200.011 227.738C200.927 227.738 201.412 228.148 201.412 228.894V229.536L199.491 229.652C197.673 229.762 196.654 230.541 196.654 231.874V231.888C196.654 233.248 197.686 234.123 199.108 234.123ZM198.336 231.806V231.792C198.336 231.177 198.78 230.828 199.73 230.767L201.412 230.657V231.259C201.412 232.147 200.653 232.817 199.628 232.817C198.876 232.817 198.336 232.441 198.336 231.806ZM204.786 234H206.488V223.637H204.786V234ZM208.29 234H209.992V223.637H208.29V234ZM214.924 234.15C216.955 234.15 217.953 232.981 218.192 232.018L218.213 231.956H216.592L216.572 232.004C216.408 232.346 215.881 232.811 214.959 232.811C213.803 232.811 213.079 232.031 213.058 230.691H218.281V230.131C218.281 227.875 216.968 226.385 214.842 226.385C212.716 226.385 211.356 227.923 211.356 230.274V230.281C211.356 232.66 212.703 234.15 214.924 234.15ZM214.863 227.718C215.813 227.718 216.504 228.326 216.62 229.55H213.072C213.202 228.36 213.913 227.718 214.863 227.718ZM222.503 234.034C222.831 234.034 223.145 234.007 223.391 233.959V232.646C223.186 232.667 223.056 232.674 222.817 232.674C222.106 232.674 221.812 232.359 221.812 231.614V227.848H223.391V226.528H221.812V224.696H220.083V226.528H218.92V227.848H220.083V232.018C220.083 233.46 220.787 234.034 222.503 234.034Z" fill="white"/>
<rect x="116" y="215.5" width="118" height="27" rx="13.5" stroke="black" stroke-opacity="0.1"/>
<rect x="244.5" y="215" width="114" height="28" rx="14" fill="#E8F2FC"/>
<path d="M257.889 223.595C258.958 222.881 260.214 222.5 261.5 222.5C262.786 222.5 264.042 222.881 265.111 223.595C266.18 224.31 267.013 225.325 267.505 226.513C267.997 227.7 268.126 229.007 267.875 230.268C267.624 231.529 267.005 232.687 266.096 233.596C265.803 233.889 265.803 234.364 266.096 234.657C266.389 234.95 266.864 234.95 267.157 234.657C268.276 233.538 269.038 232.113 269.346 230.561C269.655 229.009 269.497 227.4 268.891 225.939C268.286 224.477 267.26 223.227 265.945 222.348C264.629 221.469 263.082 221 261.5 221C259.918 221 258.371 221.469 257.055 222.348C255.74 223.227 254.714 224.477 254.109 225.939C253.503 227.4 253.345 229.009 253.654 230.561C253.962 232.113 254.724 233.538 255.843 234.657C256.136 234.95 256.611 234.95 256.904 234.657C257.197 234.364 257.197 233.889 256.904 233.596C255.995 232.687 255.376 231.529 255.125 230.268C254.874 229.007 255.003 227.7 255.495 226.513C255.987 225.325 256.82 224.31 257.889 223.595Z" fill="#3396FF"/>
<path d="M261.5 225.25C260.431 225.25 259.25 226.093 259.25 227.5C259.25 227.914 258.914 228.25 258.5 228.25C258.086 228.25 257.75 227.914 257.75 227.5C257.75 225.107 259.769 223.75 261.5 223.75C263.231 223.75 265.25 225.107 265.25 227.5C265.25 229.14 264.212 229.966 263.466 230.557C262.663 231.192 262.25 231.541 262.25 232.25C262.25 232.664 261.914 233 261.5 233C261.086 233 260.75 232.664 260.75 232.25C260.75 230.784 261.735 230.009 262.431 229.462C262.467 229.434 262.501 229.407 262.534 229.381C263.288 228.784 263.75 228.36 263.75 227.5C263.75 226.093 262.569 225.25 261.5 225.25Z" fill="#3396FF"/>
<path d="M261.5 237C262.19 237 262.75 236.44 262.75 235.75C262.75 235.06 262.19 234.5 261.5 234.5C260.81 234.5 260.25 235.06 260.25 235.75C260.25 236.44 260.81 237 261.5 237Z" fill="#3396FF"/>
<path d="M275.943 234H282.232V232.517H277.706V224.136H275.943V234ZM286.392 234.15C288.422 234.15 289.42 232.981 289.659 232.018L289.68 231.956H288.06L288.039 232.004C287.875 232.346 287.349 232.811 286.426 232.811C285.271 232.811 284.546 232.031 284.526 230.691H289.748V230.131C289.748 227.875 288.436 226.385 286.31 226.385C284.184 226.385 282.824 227.923 282.824 230.274V230.281C282.824 232.66 284.17 234.15 286.392 234.15ZM286.33 227.718C287.281 227.718 287.971 228.326 288.087 229.55H284.539C284.669 228.36 285.38 227.718 286.33 227.718ZM293.068 234.123C294.052 234.123 294.845 233.699 295.255 232.975H295.371V234H297.053V228.894C297.053 227.314 295.973 226.385 294.052 226.385C292.275 226.385 291.071 227.219 290.907 228.477L290.901 228.538H292.507L292.514 228.511C292.685 228.019 293.191 227.738 293.97 227.738C294.886 227.738 295.371 228.148 295.371 228.894V229.536L293.45 229.652C291.632 229.762 290.613 230.541 290.613 231.874V231.888C290.613 233.248 291.646 234.123 293.068 234.123ZM292.295 231.806V231.792C292.295 231.177 292.739 230.828 293.69 230.767L295.371 230.657V231.259C295.371 232.147 294.612 232.817 293.587 232.817C292.835 232.817 292.295 232.441 292.295 231.806ZM298.677 234H300.379V229.659C300.379 228.593 301.124 227.916 302.259 227.916C302.553 227.916 302.833 227.957 303.107 228.012V226.487C302.942 226.439 302.676 226.405 302.416 226.405C301.432 226.405 300.748 226.877 300.495 227.677H300.379V226.528H298.677V234ZM304.177 234H305.879V229.646C305.879 228.524 306.508 227.813 307.52 227.813C308.552 227.813 309.023 228.401 309.023 229.563V234H310.726V229.167C310.726 227.39 309.816 226.385 308.148 226.385C307.068 226.385 306.351 226.87 305.995 227.67H305.879V226.528H304.177V234ZM315.806 234H317.398V226.986H317.515L320.249 234H321.452L324.186 226.986H324.309V234H325.895V224.136H323.872L320.912 231.724H320.796L317.829 224.136H315.806V234ZM330.958 234.15C333.193 234.15 334.554 232.688 334.554 230.268V230.254C334.554 227.848 333.186 226.385 330.958 226.385C328.736 226.385 327.362 227.854 327.362 230.254V230.268C327.362 232.688 328.716 234.15 330.958 234.15ZM330.958 232.77C329.775 232.77 329.098 231.847 329.098 230.274V230.261C329.098 228.688 329.775 227.759 330.958 227.759C332.134 227.759 332.81 228.688 332.81 230.261V230.274C332.81 231.847 332.14 232.77 330.958 232.77ZM335.842 234H337.545V229.659C337.545 228.593 338.29 227.916 339.425 227.916C339.718 227.916 339.999 227.957 340.272 228.012V226.487C340.108 226.439 339.842 226.405 339.582 226.405C338.597 226.405 337.914 226.877 337.661 227.677H337.545V226.528H335.842V234ZM344.255 234.15C346.285 234.15 347.283 232.981 347.522 232.018L347.543 231.956H345.923L345.902 232.004C345.738 232.346 345.212 232.811 344.289 232.811C343.133 232.811 342.409 232.031 342.388 230.691H347.611V230.131C347.611 227.875 346.298 226.385 344.173 226.385C342.047 226.385 340.686 227.923 340.686 230.274V230.281C340.686 232.66 342.033 234.15 344.255 234.15ZM344.193 227.718C345.143 227.718 345.834 228.326 345.95 229.55H342.402C342.532 228.36 343.243 227.718 344.193 227.718Z" fill="#3396FF"/>
<rect x="245" y="215.5" width="113" height="27" rx="13.5" stroke="black" stroke-opacity="0.1"/>
<rect x="41.5" y="0.5" width="391" height="262" rx="39.5" stroke="white" stroke-opacity="0.1" shape-rendering="crispEdges"/>
</g>
</g>
<defs>
<filter id="filter0_d_1211_32656" x="32" y="-5" width="410" height="281" filterUnits="userSpaceOnUse" color-interpolation-filters="sRGB">
<feFlood flood-opacity="0" result="BackgroundImageFix"/>
<feColorMatrix in="SourceAlpha" type="matrix" values="0 0 0 0 0 0 0 0 0 0 0 0 0 0 0 0 0 0 127 0" result="hardAlpha"/>
<feMorphology radius="1" operator="dilate" in="SourceAlpha" result="effect1_dropShadow_1211_32656"/>
<feOffset dy="4"/>
<feGaussianBlur stdDeviation="4"/>
<feComposite in2="hardAlpha" operator="out"/>
<feColorMatrix type="matrix" values="0 0 0 0 0 0 0 0 0 0 0 0 0 0 0 0 0 0 0.25 0"/>
<feBlend mode="normal" in2="BackgroundImageFix" result="effect1_dropShadow_1211_32656"/>
<feBlend mode="normal" in="SourceGraphic" in2="effect1_dropShadow_1211_32656" result="shape"/>
</filter>
<clipPath id="clip0_1211_32656">
<rect width="472" height="282" fill="white" transform="translate(0.5)"/>
</clipPath>
<clipPath id="clip1_1211_32656">
<rect width="60" height="60" fill="white" transform="translate(137 20)"/>
</clipPath>
<clipPath id="clip2_1211_32656">
<rect x="207" y="20" width="60" height="60" rx="3" fill="white"/>
</clipPath>
<clipPath id="clip3_1211_32656">
<rect x="277" y="20" width="60" height="60" rx="30" fill="white"/>
</clipPath>
</defs>
</svg>
