<svg width="32" height="32" viewBox="0 0 32 32" fill="none" xmlns="http://www.w3.org/2000/svg">
<path fill-rule="evenodd" clip-rule="evenodd" d="M23.4886 15.5819C22.5877 16.4594 21.357 17 20 17C17.2386 17 15 14.7614 15 12C15 10.643 15.5406 9.41228 16.4181 8.51141C16.5706 8.35494 16.7331 8.20844 16.9048 8.07295C17.2898 7.76911 17.2101 7.06723 16.7212 7.02847C16.4325 7.00558 16.1383 6.99634 15.8449 7.0013C10.9459 7.08407 7 11.0812 7 16C7 20.9706 11.0294 25 16 25C20.9188 25 24.9159 21.0541 24.9987 16.1551C25.0036 15.8617 24.9944 15.5675 24.9715 15.2788C24.9328 14.7899 24.2309 14.7102 23.927 15.0952C23.7915 15.2669 23.6451 15.4295 23.4886 15.5819ZM22.2991 18.0814C22.7079 17.9267 23.1623 18.2747 23.0059 18.6828C21.9265 21.4999 19.1968 23.5 16 23.5C11.8579 23.5 8.5 20.1421 8.5 16C8.5 12.8032 10.5001 10.0735 13.3171 8.99409C13.7253 8.83769 14.0733 9.2921 13.9186 9.70092C13.6482 10.4156 13.5 11.1906 13.5 12C13.5 15.5898 16.4101 18.5 20 18.5C20.8094 18.5 21.5844 18.3518 22.2991 18.0814Z" fill="#E4E7E7"/>
</svg>
