<svg width="32" height="32" viewBox="0 0 32 32" fill="none" xmlns="http://www.w3.org/2000/svg">
<path d="M16 5.75C16.4142 5.75 16.75 6.08579 16.75 6.5V8.5C16.75 8.91421 16.4142 9.25 16 9.25C15.5858 9.25 15.25 8.91421 15.25 8.5V6.5C15.25 6.08579 15.5858 5.75 16 5.75Z" fill="white"/>
<path fill-rule="evenodd" clip-rule="evenodd" d="M11.75 16C11.75 13.6528 13.6528 11.75 16 11.75C18.3472 11.75 20.25 13.6528 20.25 16C20.25 18.3472 18.3472 20.25 16 20.25C13.6528 20.25 11.75 18.3472 11.75 16ZM16 13.25C14.4812 13.25 13.25 14.4812 13.25 16C13.25 17.5188 14.4812 18.75 16 18.75C17.5188 18.75 18.75 17.5188 18.75 16C18.75 14.4812 17.5188 13.25 16 13.25Z" fill="white"/>
<path d="M16.75 23.5C16.75 23.0858 16.4142 22.75 16 22.75C15.5858 22.75 15.25 23.0858 15.25 23.5V25.5C15.25 25.9142 15.5858 26.25 16 26.25C16.4142 26.25 16.75 25.9142 16.75 25.5V23.5Z" fill="white"/>
<path d="M8.75225 8.75216C9.04515 8.45926 9.52002 8.45926 9.81291 8.75216L11.2271 10.1664C11.52 10.4593 11.52 10.9341 11.2271 11.227C10.9342 11.5199 10.4594 11.5199 10.1665 11.227L8.75225 9.81282C8.45936 9.51992 8.45936 9.04505 8.75225 8.75216Z" fill="white"/>
<path d="M21.8337 20.773C21.5408 20.4801 21.0659 20.4801 20.773 20.773C20.4801 21.0659 20.4801 21.5407 20.773 21.8336L22.1872 23.2478C22.4801 23.5407 22.955 23.5407 23.2479 23.2478C23.5408 22.9549 23.5408 22.4801 23.2479 22.1872L21.8337 20.773Z" fill="white"/>
<path d="M26.25 16C26.25 16.4142 25.9142 16.75 25.5 16.75H23.5C23.0858 16.75 22.75 16.4142 22.75 16C22.75 15.5858 23.0858 15.25 23.5 15.25H25.5C25.9142 15.25 26.25 15.5858 26.25 16Z" fill="white"/>
<path d="M8.5 16.75C8.91421 16.75 9.25 16.4142 9.25 16C9.25 15.5858 8.91421 15.25 8.5 15.25H6.5C6.08579 15.25 5.75 15.5858 5.75 16C5.75 16.4142 6.08579 16.75 6.5 16.75H8.5Z" fill="white"/>
<path d="M23.2479 8.75216C23.5408 9.04506 23.5408 9.51993 23.2479 9.81282L21.8336 11.227C21.5408 11.5199 21.0659 11.5199 20.773 11.227C20.4801 10.9341 20.4801 10.4593 20.773 10.1664L22.1872 8.75216C22.4801 8.45927 22.955 8.45927 23.2479 8.75216Z" fill="white"/>
<path d="M11.2271 21.8336C11.52 21.5407 11.52 21.0659 11.2271 20.773C10.9342 20.4801 10.4593 20.4801 10.1664 20.773L8.75223 22.1872C8.45934 22.4801 8.45934 22.955 8.75223 23.2478C9.04513 23.5407 9.52 23.5407 9.81289 23.2478L11.2271 21.8336Z" fill="white"/>
</svg>
