<svg width="309" height="282" viewBox="0 0 309 282" fill="none" xmlns="http://www.w3.org/2000/svg">
<g clip-path="url(#clip0_1211_32800)">
<g filter="url(#filter0_dd_1211_32800)">
<path d="M51.22 21.6672C56.3522 18.7041 58.9183 17.2226 61.6666 16.7281C63.5405 16.3909 65.4595 16.3909 67.3334 16.7281C70.0817 17.2226 72.6478 18.7041 77.78 21.6672L85.861 26.3328C90.9932 29.2959 93.5593 30.7774 95.3618 32.9103C96.5907 34.3645 97.5502 36.0264 98.1951 37.8178C99.141 40.4452 99.141 43.4082 99.141 49.3344V58.6656C99.141 64.5918 99.141 67.5548 98.1951 70.1822C97.5502 71.9736 96.5907 73.6355 95.3618 75.0897C93.5593 77.2226 90.9932 78.7041 85.861 81.6672L77.78 86.3328C72.6478 89.2959 70.0817 90.7774 67.3334 91.2719C65.4595 91.6091 63.5405 91.6091 61.6666 91.2719C58.9183 90.7774 56.3522 89.2959 51.22 86.3328L43.139 81.6672C38.0068 78.7041 35.4407 77.2226 33.6382 75.0897C32.4093 73.6355 31.4498 71.9736 30.8049 70.1822C29.859 67.5548 29.859 64.5918 29.859 58.6656V49.3344C29.859 43.4082 29.859 40.4452 30.8049 37.8178C31.4498 36.0264 32.4093 34.3645 33.6382 32.9103C35.4407 30.7774 38.0068 29.2959 43.139 26.3328L51.22 21.6672Z" fill="#E6147A"/>
<path d="M51.47 22.1002C56.6345 19.1185 59.1131 17.6956 61.7552 17.2202C63.5705 16.8936 65.4295 16.8936 67.2448 17.2202C69.8869 17.6956 72.3655 19.1185 77.53 22.1002L85.611 26.7658C90.7756 29.7475 93.2471 31.1826 94.9799 33.233C96.1704 34.6418 97.0999 36.2518 97.7247 37.9872C98.634 40.5129 98.641 43.3709 98.641 49.3344V58.6656C98.641 64.6291 98.634 67.4871 97.7247 70.0128C97.0999 71.7482 96.1704 73.3582 94.9799 74.767C93.2471 76.8174 90.7756 78.2525 85.611 81.2342L77.53 85.8998C72.3655 88.8815 69.8869 90.3044 67.2448 90.7798C65.4295 91.1065 63.5705 91.1065 61.7552 90.7798C59.1131 90.3044 56.6345 88.8815 51.47 85.8998L43.389 81.2342C38.2244 78.2525 35.7529 76.8174 34.0201 74.767C32.8296 73.3582 31.9001 71.7482 31.2753 70.0128C30.366 67.4871 30.359 64.6291 30.359 58.6656V49.3344C30.359 43.3709 30.366 40.5129 31.2753 37.9872C31.9001 36.2518 32.8296 34.6418 34.0201 33.233C35.7529 31.1826 38.2244 29.7475 43.389 26.7658L51.47 22.1002Z" stroke="white" stroke-opacity="0.33"/>
</g>
<g clip-path="url(#clip1_1211_32800)">
<path d="M64.5054 40.0676C69.2855 40.0676 73.1606 37.8139 73.1606 35.0338C73.1606 32.2537 69.2855 30 64.5054 30C59.7253 30 55.8502 32.2537 55.8502 35.0338C55.8502 37.8139 59.7253 40.0676 64.5054 40.0676Z" fill="white"/>
<path d="M64.5054 77.9966C69.2855 77.9966 73.1606 75.7429 73.1606 72.9628C73.1606 70.1827 69.2855 67.929 64.5054 67.929C59.7253 67.929 55.8502 70.1827 55.8502 72.9628C55.8502 75.7429 59.7253 77.9966 64.5054 77.9966Z" fill="white"/>
<path d="M52.4438 47.0357C54.8339 42.8961 54.8184 38.4127 52.4092 37.0217C50 35.6307 46.1094 37.8589 43.7194 41.9985C41.3293 46.1381 41.3448 50.6215 43.754 52.0125C46.1632 53.4035 50.0538 51.1753 52.4438 47.0357Z" fill="white"/>
<path d="M85.2877 65.9979C87.6778 61.8583 87.6636 57.3757 85.256 55.9856C82.8485 54.5956 78.9592 56.8245 76.5692 60.9641C74.1791 65.1037 74.1933 69.5863 76.6009 70.9764C79.0084 72.3664 82.8977 70.1375 85.2877 65.9979Z" fill="white"/>
<path d="M52.4104 70.9751C54.8196 69.5841 54.8351 65.1007 52.4451 60.9611C50.055 56.8215 46.1644 54.5933 43.7552 55.9843C41.346 57.3753 41.3305 61.8587 43.7206 65.9983C46.1107 70.1379 50.0012 72.3661 52.4104 70.9751Z" fill="white"/>
<path d="M85.2581 52.0134C87.6657 50.6234 87.6799 46.1407 85.2898 42.0011C82.8998 37.8615 79.0105 35.6326 76.6029 37.0226C74.1954 38.4127 74.1812 42.8953 76.5712 47.0349C78.9613 51.1745 82.8506 53.4035 85.2581 52.0134Z" fill="white"/>
</g>
<g filter="url(#filter1_dd_1211_32800)">
<path d="M141.22 21.6672C146.352 18.7041 148.918 17.2226 151.667 16.7281C153.541 16.3909 155.459 16.3909 157.333 16.7281C160.082 17.2226 162.648 18.7041 167.78 21.6672L175.861 26.3328C180.993 29.2959 183.559 30.7774 185.362 32.9103C186.591 34.3645 187.55 36.0264 188.195 37.8178C189.141 40.4452 189.141 43.4082 189.141 49.3344V58.6656C189.141 64.5918 189.141 67.5548 188.195 70.1822C187.55 71.9736 186.591 73.6355 185.362 75.0897C183.559 77.2226 180.993 78.7041 175.861 81.6672L167.78 86.3328C162.648 89.2959 160.082 90.7774 157.333 91.2719C155.459 91.6091 153.541 91.6091 151.667 91.2719C148.918 90.7774 146.352 89.2959 141.22 86.3328L133.139 81.6672C128.007 78.7041 125.441 77.2226 123.638 75.0897C122.409 73.6355 121.45 71.9736 120.805 70.1822C119.859 67.5548 119.859 64.5918 119.859 58.6656V49.3344C119.859 43.4082 119.859 40.4452 120.805 37.8178C121.45 36.0264 122.409 34.3645 123.638 32.9103C125.441 30.7774 128.007 29.2959 133.139 26.3328L141.22 21.6672Z" fill="white"/>
<path d="M141.47 22.1002C146.635 19.1185 149.113 17.6956 151.755 17.2202C153.57 16.8936 155.43 16.8936 157.245 17.2202C159.887 17.6956 162.365 19.1185 167.53 22.1002L175.611 26.7658C180.776 29.7475 183.247 31.1826 184.98 33.233C186.17 34.6418 187.1 36.2518 187.725 37.9872C188.634 40.5129 188.641 43.3709 188.641 49.3344V58.6656C188.641 64.6291 188.634 67.4871 187.725 70.0128C187.1 71.7482 186.17 73.3582 184.98 74.767C183.247 76.8174 180.776 78.2525 175.611 81.2342L167.53 85.8998C162.365 88.8815 159.887 90.3044 157.245 90.7798C155.43 91.1065 153.57 91.1065 151.755 90.7798C149.113 90.3044 146.635 88.8815 141.47 85.8998L133.389 81.2342C128.224 78.2525 125.753 76.8174 124.02 74.767C122.83 73.3582 121.9 71.7482 121.275 70.0128C120.366 67.4871 120.359 64.6291 120.359 58.6656V49.3344C120.359 43.3709 120.366 40.5129 121.275 37.9872C121.9 36.2518 122.83 34.6418 124.02 33.233C125.753 31.1826 128.224 29.7475 133.389 26.7658L141.47 22.1002Z" stroke="white" stroke-opacity="0.1"/>
</g>
<circle cx="154.5" cy="53.9999" r="33.6" fill="white"/>
<path d="M154.495 30.2V63.07L169.523 54.436L154.495 30.2Z" fill="#3B4040"/>
<path d="M154.496 30.2L139.469 54.436L154.496 63.0701V47.7969V30.2Z" fill="#9EA9A9"/>
<path d="M154.495 65.8357V77.7892L169.532 57.2061L154.495 65.8357Z" fill="#3B4040"/>
<path d="M154.496 77.7891V65.8354L139.469 57.2058L154.496 77.7891Z" fill="#9EA9A9"/>
<path d="M154.495 63.0699L169.522 54.436L154.495 47.7969V63.0699Z" fill="#141414"/>
<path d="M139.469 54.436L154.495 63.07V47.7969L139.469 54.436Z" fill="#585F5F"/>
<path d="M231.22 21.6672C236.352 18.7041 238.918 17.2226 241.667 16.7281C243.541 16.3909 245.459 16.3909 247.333 16.7281C250.082 17.2226 252.648 18.7041 257.78 21.6672L265.861 26.3328C270.993 29.2959 273.559 30.7774 275.362 32.9103C276.591 34.3645 277.55 36.0264 278.195 37.8178C279.141 40.4452 279.141 43.4082 279.141 49.3344V58.6656C279.141 64.5918 279.141 67.5548 278.195 70.1822C277.55 71.9736 276.591 73.6355 275.362 75.0897C273.559 77.2226 270.993 78.7041 265.861 81.6672L257.78 86.3328C252.648 89.2959 250.082 90.7774 247.333 91.2719C245.459 91.6091 243.541 91.6091 241.667 91.2719C238.918 90.7774 236.352 89.2959 231.22 86.3328L223.139 81.6672C218.007 78.7041 215.441 77.2226 213.638 75.0897C212.409 73.6355 211.45 71.9736 210.805 70.1822C209.859 67.5548 209.859 64.5918 209.859 58.6656V49.3344C209.859 43.4082 209.859 40.4452 210.805 37.8178C211.45 36.0264 212.409 34.3645 213.638 32.9103C215.441 30.7774 218.007 29.2959 223.139 26.3328L231.22 21.6672Z" fill="#793EE0"/>
<path d="M231.47 22.1002C236.635 19.1185 239.113 17.6956 241.755 17.2202C243.57 16.8936 245.43 16.8936 247.245 17.2202C249.887 17.6956 252.365 19.1185 257.53 22.1002L265.611 26.7658C270.776 29.7475 273.247 31.1826 274.98 33.233C276.17 34.6418 277.1 36.2518 277.725 37.9872C278.634 40.5129 278.641 43.3709 278.641 49.3344V58.6656C278.641 64.6291 278.634 67.4871 277.725 70.0128C277.1 71.7482 276.17 73.3582 274.98 74.767C273.247 76.8174 270.776 78.2525 265.611 81.2342L257.53 85.8998C252.365 88.8815 249.887 90.3044 247.245 90.7798C245.43 91.1065 243.57 91.1065 241.755 90.7798C239.113 90.3044 236.635 88.8815 231.47 85.8998L223.389 81.2342C218.224 78.2525 215.753 76.8174 214.02 74.767C212.83 73.3582 211.9 71.7482 211.275 70.0128C210.366 67.4871 210.359 64.6291 210.359 58.6656V49.3344C210.359 43.3709 210.366 40.5129 211.275 37.9872C211.9 36.2518 212.83 34.6418 214.02 33.233C215.753 31.1826 218.224 29.7475 223.389 26.7658L231.47 22.1002Z" stroke="white" stroke-opacity="0.1"/>
<g clip-path="url(#clip2_1211_32800)">
<path d="M244.5 86C262.173 86 276.5 71.6731 276.5 54C276.5 36.3269 262.173 22 244.5 22C226.827 22 212.5 36.3269 212.5 54C212.5 71.6731 226.827 86 244.5 86Z" fill="#7B3FE4"/>
<path d="M265.833 54.7469V64.4008C265.83 65.0028 265.671 65.5937 265.371 66.1155C265.072 66.6373 264.643 67.0723 264.126 67.378L255.793 72.1949C255.277 72.5037 254.687 72.6666 254.086 72.6666C253.486 72.6666 252.896 72.5037 252.38 72.1949L244.046 67.378C243.53 67.0723 243.101 66.6373 242.801 66.1155C242.502 65.5937 242.343 65.0028 242.34 64.4008V61.6913L246.606 59.2059V63.9157L254.073 68.2644L261.54 63.9157V55.2385L254.073 50.8899L236.58 61.059C236.059 61.3536 235.471 61.5084 234.873 61.5084C234.275 61.5084 233.687 61.3536 233.166 61.059L224.833 56.2221C224.324 55.9117 223.903 55.4751 223.612 54.9542C223.32 54.4333 223.166 53.8458 223.166 53.2482V43.5942C223.17 42.9922 223.329 42.4014 223.628 41.8796C223.927 41.3577 224.356 40.9227 224.873 40.6171L233.206 35.8001C233.724 35.4945 234.313 35.3333 234.913 35.3333C235.513 35.3333 236.103 35.4945 236.62 35.8001L244.953 40.6171C245.47 40.9227 245.899 41.3577 246.198 41.8796C246.497 42.4014 246.656 42.9922 246.66 43.5942V46.3037L242.366 48.7725V44.0893L234.9 39.7407L227.433 44.0893V52.7565L234.9 57.1051L252.393 46.936C252.914 46.6414 253.502 46.4867 254.1 46.4867C254.698 46.4867 255.285 46.6414 255.806 46.936L264.14 51.773C264.654 52.0801 265.08 52.5153 265.376 53.0363C265.673 53.5574 265.83 54.1467 265.833 54.7469Z" fill="white"/>
</g>
<g filter="url(#filter2_dd_1211_32800)">
<path d="M51.22 181.667C56.3522 178.704 58.9183 177.223 61.6666 176.728C63.5405 176.391 65.4595 176.391 67.3334 176.728C70.0817 177.223 72.6478 178.704 77.78 181.667L85.861 186.333C90.9932 189.296 93.5593 190.777 95.3618 192.91C96.5907 194.365 97.5502 196.026 98.1951 197.818C99.141 200.445 99.141 203.408 99.141 209.334V218.666C99.141 224.592 99.141 227.555 98.1951 230.182C97.5502 231.974 96.5907 233.635 95.3618 235.09C93.5593 237.223 90.9932 238.704 85.861 241.667L77.78 246.333C72.6478 249.296 70.0817 250.777 67.3334 251.272C65.4595 251.609 63.5405 251.609 61.6666 251.272C58.9183 250.777 56.3522 249.296 51.22 246.333L43.139 241.667C38.0068 238.704 35.4407 237.223 33.6382 235.09C32.4093 233.635 31.4498 231.974 30.8049 230.182C29.859 227.555 29.859 224.592 29.859 218.666V209.334C29.859 203.408 29.859 200.445 30.8049 197.818C31.4498 196.026 32.4093 194.365 33.6382 192.91C35.4407 190.777 38.0068 189.296 43.139 186.333L51.22 181.667Z" fill="#F1F3F3"/>
<path d="M51.47 182.1C56.6345 179.118 59.1131 177.696 61.7552 177.22C63.5705 176.894 65.4295 176.894 67.2448 177.22C69.8869 177.696 72.3655 179.118 77.53 182.1L85.611 186.766C90.7756 189.748 93.2471 191.183 94.9799 193.233C96.1704 194.642 97.0999 196.252 97.7247 197.987C98.634 200.513 98.641 203.371 98.641 209.334V218.666C98.641 224.629 98.634 227.487 97.7247 230.013C97.0999 231.748 96.1704 233.358 94.9799 234.767C93.2471 236.817 90.7756 238.252 85.611 241.234L77.53 245.9C72.3655 248.882 69.8869 250.304 67.2448 250.78C65.4295 251.106 63.5705 251.106 61.7552 250.78C59.1131 250.304 56.6345 248.882 51.47 245.9L43.389 241.234C38.2244 238.252 35.7529 236.817 34.0201 234.767C32.8296 233.358 31.9001 231.748 31.2753 230.013C30.366 227.487 30.359 224.629 30.359 218.666V209.334C30.359 203.371 30.366 200.513 31.2753 197.987C31.9001 196.252 32.8296 194.642 34.0201 193.233C35.7529 191.183 38.2244 189.748 43.389 186.766L51.47 182.1Z" stroke="white"/>
</g>
<path d="M76.1213 196.749L68.0947 208.666C67.9803 208.838 67.932 209.045 67.9587 209.25C67.9853 209.454 68.0851 209.642 68.2396 209.779C68.3941 209.915 68.5928 209.991 68.799 209.993C69.0052 209.994 69.205 209.921 69.3613 209.786L77.2627 202.933C77.309 202.892 77.3663 202.865 77.4277 202.855C77.4892 202.846 77.552 202.855 77.6085 202.88C77.6651 202.906 77.7129 202.948 77.7462 203C77.7795 203.053 77.7968 203.114 77.796 203.176V224.632C77.796 224.697 77.7757 224.762 77.738 224.815C77.7003 224.869 77.647 224.91 77.5852 224.932C77.5235 224.955 77.4563 224.958 77.3929 224.941C77.3295 224.924 77.2728 224.887 77.2307 224.837L53.348 196.248C52.9638 195.794 52.4855 195.43 51.9463 195.18C51.407 194.93 50.8197 194.8 50.2253 194.8H49.3907C48.3057 194.8 47.2653 195.231 46.4981 195.998C45.731 196.765 45.3 197.806 45.3 198.89V229.109C45.3 230.194 45.731 231.235 46.4981 232.002C47.2653 232.769 48.3057 233.2 49.3907 233.2C50.0902 233.2 50.778 233.021 51.3887 232.68C51.9993 232.338 52.5123 231.846 52.8787 231.25L60.9053 219.333C61.0196 219.162 61.0679 218.954 61.0413 218.75C61.0147 218.545 60.9149 218.357 60.7604 218.221C60.6059 218.084 60.4072 218.008 60.2009 218.007C59.9947 218.005 59.795 218.079 59.6387 218.213L51.7373 225.066C51.691 225.108 51.6337 225.135 51.5722 225.144C51.5108 225.154 51.448 225.145 51.3914 225.119C51.3349 225.094 51.287 225.052 51.2538 224.999C51.2205 224.947 51.2032 224.886 51.204 224.824V203.362C51.204 203.297 51.2243 203.233 51.262 203.179C51.2997 203.125 51.353 203.084 51.4147 203.062C51.4765 203.039 51.5436 203.037 51.6071 203.054C51.6705 203.071 51.7271 203.107 51.7693 203.157L75.6493 231.752C76.0335 232.205 76.5118 232.57 77.0511 232.82C77.5903 233.07 78.1776 233.2 78.772 233.2H79.6067C80.1441 233.2 80.6763 233.095 81.1729 232.889C81.6695 232.684 82.1208 232.383 82.5009 232.003C82.8811 231.623 83.1826 231.172 83.3884 230.675C83.5941 230.179 83.7 229.647 83.7 229.109V198.89C83.7 197.806 83.269 196.765 82.5019 195.998C81.7347 195.231 80.6942 194.8 79.6093 194.8C78.9098 194.8 78.2219 194.979 77.6113 195.32C77.0007 195.661 76.4877 196.153 76.1213 196.749Z" fill="black"/>
<path d="M141.22 181.667C146.352 178.704 148.918 177.223 151.667 176.728C153.541 176.391 155.459 176.391 157.333 176.728C160.082 177.223 162.648 178.704 167.78 181.667L175.861 186.333C180.993 189.296 183.559 190.777 185.362 192.91C186.591 194.365 187.55 196.026 188.195 197.818C189.141 200.445 189.141 203.408 189.141 209.334V218.666C189.141 224.592 189.141 227.555 188.195 230.182C187.55 231.974 186.591 233.635 185.362 235.09C183.559 237.223 180.993 238.704 175.861 241.667L167.78 246.333C162.648 249.296 160.082 250.777 157.333 251.272C155.459 251.609 153.541 251.609 151.667 251.272C148.918 250.777 146.352 249.296 141.22 246.333L133.139 241.667C128.007 238.704 125.441 237.223 123.638 235.09C122.409 233.635 121.45 231.974 120.805 230.182C119.859 227.555 119.859 224.592 119.859 218.666V209.334C119.859 203.408 119.859 200.445 120.805 197.818C121.45 196.026 122.409 194.365 123.638 192.91C125.441 190.777 128.007 189.296 133.139 186.333L141.22 181.667Z" fill="url(#paint0_linear_1211_32800)"/>
<path d="M141.47 182.1C146.635 179.118 149.113 177.696 151.755 177.22C153.57 176.894 155.43 176.894 157.245 177.22C159.887 177.696 162.365 179.118 167.53 182.1L175.611 186.766C180.776 189.748 183.247 191.183 184.98 193.233C186.17 194.642 187.1 196.252 187.725 197.987C188.634 200.513 188.641 203.371 188.641 209.334V218.666C188.641 224.629 188.634 227.487 187.725 230.013C187.1 231.748 186.17 233.358 184.98 234.767C183.247 236.817 180.776 238.252 175.611 241.234L167.53 245.9C162.365 248.882 159.887 250.304 157.245 250.78C155.43 251.106 153.57 251.106 151.755 250.78C149.113 250.304 146.635 248.882 141.47 245.9L133.389 241.234C128.224 238.252 125.753 236.817 124.02 234.767C122.83 233.358 121.9 231.748 121.275 230.013C120.366 227.487 120.359 224.629 120.359 218.666V209.334C120.359 203.371 120.366 200.513 121.275 197.987C121.9 196.252 122.83 194.642 124.02 193.233C125.753 191.183 128.224 189.748 133.389 186.766L141.47 182.1Z" stroke="white" stroke-opacity="0.1"/>
<g clip-path="url(#clip3_1211_32800)">
<path d="M173.502 223.579L167.163 230.202C167.025 230.346 166.859 230.46 166.673 230.539C166.488 230.617 166.288 230.657 166.086 230.657H136.036C135.893 230.657 135.752 230.617 135.632 230.54C135.513 230.463 135.418 230.354 135.361 230.226C135.304 230.098 135.286 229.957 135.311 229.819C135.335 229.681 135.4 229.553 135.498 229.451L141.842 222.828C141.979 222.685 142.145 222.57 142.33 222.492C142.515 222.414 142.714 222.373 142.915 222.373H172.964C173.108 222.373 173.248 222.414 173.368 222.49C173.488 222.567 173.582 222.676 173.639 222.804C173.696 222.932 173.714 223.074 173.689 223.211C173.665 223.349 173.6 223.477 173.502 223.579ZM167.163 210.242C167.025 210.098 166.859 209.983 166.673 209.905C166.488 209.827 166.288 209.786 166.086 209.786H136.036C135.893 209.786 135.752 209.827 135.632 209.904C135.513 209.98 135.418 210.089 135.361 210.217C135.304 210.346 135.286 210.487 135.311 210.625C135.335 210.762 135.4 210.89 135.498 210.992L141.842 217.615C141.979 217.759 142.145 217.873 142.33 217.952C142.515 218.03 142.714 218.071 142.915 218.071H172.964C173.108 218.071 173.248 218.03 173.368 217.954C173.488 217.877 173.582 217.768 173.639 217.64C173.696 217.512 173.714 217.37 173.689 217.232C173.665 217.095 173.6 216.967 173.502 216.865L167.163 210.242ZM136.036 205.485H166.086C166.288 205.485 166.488 205.444 166.673 205.366C166.859 205.288 167.025 205.173 167.163 205.029L173.502 198.406C173.6 198.304 173.665 198.176 173.689 198.038C173.714 197.901 173.696 197.759 173.639 197.631C173.582 197.503 173.488 197.394 173.368 197.317C173.248 197.241 173.108 197.2 172.964 197.2H142.915C142.714 197.2 142.515 197.241 142.33 197.319C142.145 197.398 141.979 197.512 141.842 197.656L135.5 204.279C135.402 204.381 135.337 204.508 135.312 204.646C135.288 204.783 135.305 204.925 135.362 205.053C135.419 205.181 135.513 205.29 135.633 205.367C135.753 205.443 135.893 205.484 136.036 205.485Z" fill="white"/>
</g>
<path d="M231.22 181.667C236.352 178.704 238.918 177.223 241.667 176.728C243.541 176.391 245.459 176.391 247.333 176.728C250.082 177.223 252.648 178.704 257.78 181.667L265.861 186.333C270.993 189.296 273.559 190.777 275.362 192.91C276.591 194.365 277.55 196.026 278.195 197.818C279.141 200.445 279.141 203.408 279.141 209.334V218.666C279.141 224.592 279.141 227.555 278.195 230.182C277.55 231.974 276.591 233.635 275.362 235.09C273.559 237.223 270.993 238.704 265.861 241.667L257.78 246.333C252.648 249.296 250.082 250.777 247.333 251.272C245.459 251.609 243.541 251.609 241.667 251.272C238.918 250.777 236.352 249.296 231.22 246.333L223.139 241.667C218.007 238.704 215.441 237.223 213.638 235.09C212.409 233.635 211.45 231.974 210.805 230.182C209.859 227.555 209.859 224.592 209.859 218.666V209.334C209.859 203.408 209.859 200.445 210.805 197.818C211.45 196.026 212.409 194.365 213.638 192.91C215.441 190.777 218.007 189.296 223.139 186.333L231.22 181.667Z" fill="#B7B9C7"/>
<path d="M231.47 182.1C236.635 179.118 239.113 177.696 241.755 177.22C243.57 176.894 245.43 176.894 247.245 177.22C249.887 177.696 252.365 179.118 257.53 182.1L265.611 186.766C270.776 189.748 273.247 191.183 274.98 193.233C276.17 194.642 277.1 196.252 277.725 197.987C278.634 200.513 278.641 203.371 278.641 209.334V218.666C278.641 224.629 278.634 227.487 277.725 230.013C277.1 231.748 276.17 233.358 274.98 234.767C273.247 236.817 270.776 238.252 265.611 241.234L257.53 245.9C252.365 248.882 249.887 250.304 247.245 250.78C245.43 251.106 243.57 251.106 241.755 250.78C239.113 250.304 236.635 248.882 231.47 245.9L223.389 241.234C218.224 238.252 215.753 236.817 214.02 234.767C212.83 233.358 211.9 231.748 211.275 230.013C210.366 227.487 210.359 224.629 210.359 218.666V209.334C210.359 203.371 210.366 200.513 211.275 197.987C211.9 196.252 212.83 194.642 214.02 193.233C215.753 191.183 218.224 189.748 223.389 186.766L231.47 182.1Z" stroke="white" stroke-opacity="0.33"/>
<path fill-rule="evenodd" clip-rule="evenodd" d="M244.5 185.2C260.406 185.2 273.3 198.094 273.3 214C273.3 229.906 260.406 242.8 244.5 242.8C228.594 242.8 215.7 229.906 215.7 214C215.7 198.094 228.594 185.2 244.5 185.2Z" fill="#2F3146"/>
<path fill-rule="evenodd" clip-rule="evenodd" d="M244.444 197.385C253.621 197.385 261.06 204.824 261.06 214C261.06 223.177 253.621 230.616 244.444 230.616C235.268 230.616 227.829 223.177 227.829 214C227.829 204.824 235.268 197.385 244.444 197.385Z" fill="#1C1E34"/>
<path fill-rule="evenodd" clip-rule="evenodd" d="M244.952 190.126C244.723 189.916 244.605 189.912 244.586 189.912C244.566 189.912 244.448 189.916 244.219 190.126C243.984 190.342 243.703 190.715 243.401 191.291C242.797 192.439 242.219 194.175 241.721 196.415C241.161 198.934 240.719 202.012 240.439 205.458C241.788 206.111 243.175 206.82 244.585 207.582C245.996 206.82 247.383 206.111 248.732 205.458C248.452 202.012 248.01 198.933 247.45 196.415C246.952 194.175 246.374 192.439 245.77 191.291C245.468 190.715 245.187 190.342 244.952 190.126ZM243.405 208.228C242.369 207.678 241.348 207.157 240.349 206.668C240.273 207.778 240.214 208.921 240.173 210.093C240.702 209.776 241.238 209.461 241.782 209.148C242.325 208.834 242.867 208.528 243.405 208.228ZM239.351 204.94C240.161 195.49 242.199 188.785 244.586 188.785C246.972 188.785 249.01 195.49 249.82 204.94C258.413 200.916 265.243 199.327 266.436 201.393C267.629 203.458 262.838 208.575 255.053 214C262.838 219.426 267.629 224.543 266.436 226.608C265.243 228.673 258.413 227.085 249.82 223.06C249.01 232.51 246.972 239.216 244.586 239.216C242.199 239.216 240.161 232.51 239.351 223.06C230.758 227.085 223.928 228.673 222.734 226.608C221.541 224.543 226.333 219.426 234.117 214C226.333 208.575 221.541 203.458 222.734 201.393C223.928 199.327 230.758 200.916 239.351 204.94ZM235.11 213.317C232.263 211.352 229.816 209.43 227.914 207.686C226.222 206.135 225.006 204.767 224.313 203.67C223.966 203.12 223.783 202.691 223.713 202.38C223.645 202.077 223.701 201.973 223.71 201.956H223.71C223.72 201.94 223.782 201.839 224.079 201.747C224.384 201.651 224.848 201.595 225.498 201.621C226.795 201.672 228.588 202.04 230.778 202.729C233.241 203.504 236.13 204.66 239.256 206.142C239.148 207.635 239.069 209.189 239.024 210.791C237.658 211.631 236.35 212.476 235.11 213.317ZM235.11 214.683C232.263 216.648 229.816 218.571 227.914 220.315C226.222 221.866 225.006 223.234 224.313 224.331C223.966 224.88 223.783 225.309 223.713 225.621C223.645 225.924 223.701 226.027 223.71 226.044C223.72 226.061 223.782 226.161 224.079 226.254C224.384 226.349 224.848 226.406 225.498 226.38C226.795 226.328 228.588 225.96 230.778 225.271C233.241 224.497 236.13 223.34 239.256 221.859C239.148 220.366 239.069 218.811 239.024 217.21C237.658 216.37 236.35 215.524 235.11 214.683ZM238.994 215.865C237.999 215.244 237.037 214.621 236.113 214C237.037 213.38 237.999 212.757 238.994 212.135C238.984 212.751 238.979 213.373 238.979 214C238.979 214.627 238.984 215.249 238.994 215.865ZM240.135 216.568C240.116 215.724 240.106 214.868 240.106 214C240.106 213.133 240.116 212.276 240.135 211.433C240.856 210.994 241.593 210.558 242.345 210.124C243.097 209.69 243.844 209.27 244.585 208.865C245.326 209.27 246.073 209.69 246.825 210.124C247.577 210.558 248.315 210.995 249.036 211.433C249.055 212.277 249.065 213.133 249.065 214C249.065 214.868 249.055 215.724 249.036 216.567C248.315 217.006 247.577 217.443 246.825 217.877C246.073 218.311 245.326 218.73 244.585 219.136C243.844 218.73 243.097 218.311 242.345 217.877C241.593 217.443 240.856 217.006 240.135 216.568ZM240.173 217.908C240.214 219.079 240.273 220.223 240.349 221.332C241.348 220.843 242.369 220.323 243.405 219.772C242.867 219.473 242.325 219.166 241.782 218.853C241.238 218.539 240.702 218.224 240.173 217.908ZM244.585 220.419C243.175 221.18 241.788 221.89 240.439 222.542C240.719 225.988 241.161 229.067 241.721 231.586C242.219 233.826 242.797 235.561 243.401 236.71C243.703 237.285 243.984 237.658 244.219 237.874C244.448 238.085 244.566 238.089 244.586 238.089C244.605 238.089 244.723 238.085 244.952 237.874C245.187 237.658 245.468 237.285 245.77 236.71C246.374 235.561 246.952 233.826 247.45 231.586C248.01 229.067 248.452 225.989 248.732 222.542C247.383 221.89 245.996 221.18 244.585 220.419ZM249.915 221.859C253.04 223.341 255.929 224.497 258.392 225.271C260.582 225.96 262.375 226.328 263.673 226.38C264.322 226.406 264.786 226.349 265.091 226.254C265.388 226.161 265.45 226.061 265.46 226.044C265.47 226.027 265.525 225.924 265.457 225.621C265.387 225.309 265.205 224.88 264.857 224.331C264.164 223.234 262.949 221.866 261.257 220.315C259.354 218.571 256.907 216.648 254.06 214.683C252.821 215.524 251.513 216.369 250.147 217.209C250.102 218.811 250.023 220.366 249.915 221.859ZM254.06 213.317C256.907 211.352 259.354 209.43 261.257 207.686C262.949 206.135 264.164 204.767 264.857 203.67C265.205 203.12 265.387 202.691 265.457 202.38C265.525 202.077 265.47 201.973 265.46 201.956C265.45 201.94 265.388 201.839 265.091 201.747C264.786 201.651 264.322 201.595 263.673 201.621C262.375 201.672 260.582 202.04 258.392 202.729C255.929 203.504 253.04 204.66 249.915 206.141C250.023 207.635 250.102 209.19 250.147 210.791C251.513 211.631 252.821 212.477 254.06 213.317ZM250.177 212.136C251.172 212.757 252.134 213.38 253.057 214C252.134 214.62 251.172 215.243 250.177 215.865C250.187 215.249 250.192 214.627 250.192 214C250.192 213.373 250.187 212.751 250.177 212.136ZM248.998 210.093C248.957 208.921 248.898 207.778 248.822 206.668C247.822 207.157 246.802 207.678 245.765 208.228C246.304 208.528 246.845 208.834 247.389 209.148C247.932 209.461 248.469 209.777 248.998 210.093ZM248.822 221.333C247.822 220.844 246.802 220.323 245.765 219.772C246.304 219.473 246.845 219.166 247.389 218.853C247.932 218.539 248.469 218.224 248.998 217.907C248.957 219.079 248.898 220.223 248.822 221.333Z" fill="#70738E"/>
<path fill-rule="evenodd" clip-rule="evenodd" d="M228.469 206.938C229.448 206.938 230.242 207.733 230.242 208.712C230.242 209.692 229.448 210.486 228.469 210.486C227.489 210.486 226.696 209.692 226.696 208.712C226.696 207.733 227.489 206.938 228.469 206.938Z" fill="#B7B9C7"/>
<path fill-rule="evenodd" clip-rule="evenodd" d="M256.65 200.863C257.63 200.863 258.424 201.658 258.424 202.637C258.424 203.617 257.63 204.411 256.65 204.411C255.67 204.411 254.876 203.617 254.876 202.637C254.876 201.658 255.67 200.863 256.65 200.863Z" fill="#B7B9C7"/>
<path fill-rule="evenodd" clip-rule="evenodd" d="M241.013 228.708C241.992 228.708 242.787 229.502 242.787 230.481C242.787 231.46 241.992 232.254 241.013 232.254C240.033 232.254 239.239 231.46 239.239 230.481C239.239 229.502 240.033 228.708 241.013 228.708Z" fill="#B7B9C7"/>
<path fill-rule="evenodd" clip-rule="evenodd" d="M244.487 210.983C246.146 210.983 247.49 212.328 247.49 213.987C247.49 215.646 246.146 216.99 244.487 216.99C242.828 216.99 241.483 215.646 241.483 213.987C241.483 212.328 242.828 210.983 244.487 210.983Z" fill="#B7B9C7"/>
<path d="M96.22 101.667C101.352 98.7041 103.918 97.2226 106.667 96.7281C108.541 96.3909 110.459 96.3909 112.333 96.7281C115.082 97.2226 117.648 98.7041 122.78 101.667L130.861 106.333C135.993 109.296 138.559 110.777 140.362 112.91C141.591 114.365 142.55 116.026 143.195 117.818C144.141 120.445 144.141 123.408 144.141 129.334V138.666C144.141 144.592 144.141 147.555 143.195 150.182C142.55 151.974 141.591 153.635 140.362 155.09C138.559 157.223 135.993 158.704 130.861 161.667L122.78 166.333C117.648 169.296 115.082 170.777 112.333 171.272C110.459 171.609 108.541 171.609 106.667 171.272C103.918 170.777 101.352 169.296 96.22 166.333L88.139 161.667C83.0068 158.704 80.4407 157.223 78.6382 155.09C77.4093 153.635 76.4498 151.974 75.8049 150.182C74.859 147.555 74.859 144.592 74.859 138.666V129.334C74.859 123.408 74.859 120.445 75.8049 117.818C76.4498 116.026 77.4093 114.365 78.6382 112.91C80.4407 110.777 83.0068 109.296 88.139 106.333L96.22 101.667Z" fill="#FF0420"/>
<path d="M96.47 102.1C101.635 99.1185 104.113 97.6956 106.755 97.2202C108.57 96.8936 110.43 96.8936 112.245 97.2202C114.887 97.6956 117.365 99.1185 122.53 102.1L130.611 106.766C135.776 109.748 138.247 111.183 139.98 113.233C141.17 114.642 142.1 116.252 142.725 117.987C143.634 120.513 143.641 123.371 143.641 129.334V138.666C143.641 144.629 143.634 147.487 142.725 150.013C142.1 151.748 141.17 153.358 139.98 154.767C138.247 156.817 135.776 158.252 130.611 161.234L122.53 165.9C117.365 168.882 114.887 170.304 112.245 170.78C110.43 171.106 108.57 171.106 106.755 170.78C104.113 170.304 101.635 168.882 96.47 165.9L88.389 161.234C83.2244 158.252 80.7529 156.817 79.0201 154.767C77.8296 153.358 76.9001 151.748 76.2753 150.013C75.366 147.487 75.359 144.629 75.359 138.666V129.334C75.359 123.371 75.366 120.513 76.2753 117.987C76.9001 116.252 77.8296 114.642 79.0201 113.233C80.7529 111.183 83.2244 109.748 88.389 106.766L96.47 102.1Z" stroke="white" stroke-opacity="0.33"/>
<g clip-path="url(#clip4_1211_32800)">
<path d="M109.5 167.6C128.057 167.6 143.1 152.557 143.1 134C143.1 115.443 128.057 100.4 109.5 100.4C90.9433 100.4 75.9 115.443 75.9 134C75.9 152.557 90.9433 167.6 109.5 167.6Z" fill="#FF0420"/>
<path d="M99.7067 142.93C97.706 142.93 96.0669 142.459 94.7891 141.518C93.5282 140.56 92.8977 139.198 92.8977 137.433C92.8977 137.063 92.9398 136.609 93.0238 136.071C93.2424 134.86 93.5534 133.406 93.9569 131.708C95.1001 127.085 98.0507 124.773 102.809 124.773C104.103 124.773 105.263 124.991 106.289 125.429C107.314 125.849 108.121 126.488 108.71 127.345C109.298 128.186 109.592 129.195 109.592 130.371C109.592 130.724 109.55 131.17 109.466 131.708C109.214 133.204 108.911 134.659 108.558 136.071C107.97 138.374 106.953 140.097 105.507 141.241C104.061 142.367 102.128 142.93 99.7067 142.93ZM100.06 139.299C101.001 139.299 101.8 139.021 102.456 138.467C103.128 137.912 103.607 137.063 103.893 135.92C104.28 134.339 104.574 132.96 104.776 131.784C104.843 131.431 104.877 131.069 104.877 130.699C104.877 129.169 104.078 128.404 102.481 128.404C101.539 128.404 100.732 128.682 100.06 129.237C99.4041 129.791 98.9333 130.64 98.6476 131.784C98.3449 132.91 98.0423 134.289 97.7397 135.92C97.6724 136.256 97.6388 136.609 97.6388 136.979C97.6388 138.525 98.4459 139.299 100.06 139.299Z" fill="white"/>
<path d="M110.75 142.678C110.565 142.678 110.422 142.619 110.322 142.502C110.238 142.367 110.212 142.216 110.246 142.048L113.726 125.656C113.76 125.471 113.852 125.319 114.004 125.202C114.155 125.084 114.315 125.025 114.483 125.025H121.191C123.057 125.025 124.553 125.412 125.68 126.185C126.823 126.959 127.395 128.077 127.395 129.539C127.395 129.96 127.344 130.397 127.243 130.851C126.823 132.784 125.974 134.213 124.696 135.138C123.435 136.062 121.704 136.525 119.501 136.525H116.097L114.937 142.048C114.903 142.233 114.81 142.384 114.659 142.502C114.508 142.619 114.348 142.678 114.18 142.678H110.75ZM119.678 133.045C120.384 133.045 120.997 132.851 121.519 132.465C122.057 132.078 122.41 131.523 122.578 130.8C122.628 130.514 122.654 130.262 122.654 130.044C122.654 129.556 122.511 129.186 122.225 128.934C121.939 128.665 121.451 128.531 120.762 128.531H117.736L116.778 133.045H119.678Z" fill="white"/>
</g>
<g filter="url(#filter3_dd_1211_32800)">
<path d="M186.22 101.667C191.352 98.7041 193.918 97.2226 196.667 96.7281C198.541 96.3909 200.459 96.3909 202.333 96.7281C205.082 97.2226 207.648 98.7041 212.78 101.667L220.861 106.333C225.993 109.296 228.559 110.777 230.362 112.91C231.591 114.365 232.55 116.026 233.195 117.818C234.141 120.445 234.141 123.408 234.141 129.334V138.666C234.141 144.592 234.141 147.555 233.195 150.182C232.55 151.974 231.591 153.635 230.362 155.09C228.559 157.223 225.993 158.704 220.861 161.667L212.78 166.333C207.648 169.296 205.082 170.777 202.333 171.272C200.459 171.609 198.541 171.609 196.667 171.272C193.918 170.777 191.352 169.296 186.22 166.333L178.139 161.667C173.007 158.704 170.441 157.223 168.638 155.09C167.409 153.635 166.45 151.974 165.805 150.182C164.859 147.555 164.859 144.592 164.859 138.666V129.334C164.859 123.408 164.859 120.445 165.805 117.818C166.45 116.026 167.409 114.365 168.638 112.91C170.441 110.777 173.007 109.296 178.139 106.333L186.22 101.667Z" fill="#E84142"/>
<path d="M186.47 102.1C191.635 99.1185 194.113 97.6956 196.755 97.2202C198.57 96.8936 200.43 96.8936 202.245 97.2202C204.887 97.6956 207.365 99.1185 212.53 102.1L220.611 106.766C225.776 109.748 228.247 111.183 229.98 113.233C231.17 114.642 232.1 116.252 232.725 117.987C233.634 120.513 233.641 123.371 233.641 129.334V138.666C233.641 144.629 233.634 147.487 232.725 150.013C232.1 151.748 231.17 153.358 229.98 154.767C228.247 156.817 225.776 158.252 220.611 161.234L212.53 165.9C207.365 168.882 204.887 170.304 202.245 170.78C200.43 171.106 198.57 171.106 196.755 170.78C194.113 170.304 191.635 168.882 186.47 165.9L178.389 161.234C173.224 158.252 170.753 156.817 169.02 154.767C167.83 153.358 166.9 151.748 166.275 150.013C165.366 147.487 165.359 144.629 165.359 138.666V129.334C165.359 123.371 165.366 120.513 166.275 117.987C166.9 116.252 167.83 114.642 169.02 113.233C170.753 111.183 173.224 109.748 178.389 106.766L186.47 102.1Z" stroke="white" stroke-opacity="0.1"/>
</g>
<g clip-path="url(#clip5_1211_32800)">
<path d="M219.202 112.979H179.713V148.894H219.202V112.979Z" fill="white"/>
<path fill-rule="evenodd" clip-rule="evenodd" d="M231.436 134C231.436 151.65 217.128 165.957 199.479 165.957C181.829 165.957 167.521 151.65 167.521 134C167.521 116.35 181.829 102.042 199.479 102.042C217.128 102.042 231.436 116.35 231.436 134ZM190.423 146.717H184.221C182.918 146.717 182.274 146.717 181.881 146.466C181.457 146.191 181.198 145.736 181.167 145.234C181.143 144.771 181.465 144.205 182.109 143.075L197.423 116.082C198.074 114.936 198.404 114.363 198.82 114.151C199.267 113.923 199.801 113.923 200.249 114.151C200.665 114.363 200.995 114.936 201.646 116.082L204.794 121.578L204.81 121.606C205.514 122.835 205.871 123.459 206.027 124.114C206.2 124.828 206.2 125.582 206.027 126.296C205.87 126.955 205.517 127.584 204.802 128.832L196.758 143.051L196.738 143.088C196.029 144.327 195.67 144.956 195.173 145.43C194.631 145.948 193.979 146.325 193.265 146.537C192.613 146.717 191.883 146.717 190.423 146.717ZM206.085 146.717H214.972C216.283 146.717 216.943 146.717 217.335 146.459C217.759 146.184 218.026 145.72 218.05 145.218C218.072 144.77 217.757 144.227 217.14 143.162C217.119 143.126 217.098 143.089 217.076 143.051L212.625 135.436L212.574 135.35C211.948 134.293 211.633 133.758 211.227 133.552C210.78 133.324 210.254 133.324 209.806 133.552C209.398 133.764 209.068 134.321 208.417 135.444L203.981 143.059L203.966 143.085C203.317 144.206 202.992 144.766 203.015 145.226C203.047 145.728 203.306 146.191 203.73 146.466C204.115 146.717 204.774 146.717 206.085 146.717Z" fill="#E84142"/>
</g>
</g>
<defs>
<filter id="filter0_dd_1211_32800" x="-6.14099" y="-14.5249" width="151.282" height="157.05" filterUnits="userSpaceOnUse" color-interpolation-filters="sRGB">
<feFlood flood-opacity="0" result="BackgroundImageFix"/>
<feColorMatrix in="SourceAlpha" type="matrix" values="0 0 0 0 0 0 0 0 0 0 0 0 0 0 0 0 0 0 127 0" result="hardAlpha"/>
<feMorphology radius="1" operator="dilate" in="SourceAlpha" result="effect1_dropShadow_1211_32800"/>
<feOffset dx="5" dy="10"/>
<feGaussianBlur stdDeviation="20"/>
<feComposite in2="hardAlpha" operator="out"/>
<feColorMatrix type="matrix" values="0 0 0 0 0 0 0 0 0 0 0 0 0 0 0 0 0 0 0.5 0"/>
<feBlend mode="normal" in2="BackgroundImageFix" result="effect1_dropShadow_1211_32800"/>
<feColorMatrix in="SourceAlpha" type="matrix" values="0 0 0 0 0 0 0 0 0 0 0 0 0 0 0 0 0 0 127 0" result="hardAlpha"/>
<feOffset dx="2" dy="4"/>
<feGaussianBlur stdDeviation="5"/>
<feComposite in2="hardAlpha" operator="out"/>
<feColorMatrix type="matrix" values="0 0 0 0 0 0 0 0 0 0 0 0 0 0 0 0 0 0 0.5 0"/>
<feBlend mode="normal" in2="effect1_dropShadow_1211_32800" result="effect2_dropShadow_1211_32800"/>
<feBlend mode="normal" in="SourceGraphic" in2="effect2_dropShadow_1211_32800" result="shape"/>
</filter>
<filter id="filter1_dd_1211_32800" x="83.859" y="-14.5249" width="151.282" height="157.05" filterUnits="userSpaceOnUse" color-interpolation-filters="sRGB">
<feFlood flood-opacity="0" result="BackgroundImageFix"/>
<feColorMatrix in="SourceAlpha" type="matrix" values="0 0 0 0 0 0 0 0 0 0 0 0 0 0 0 0 0 0 127 0" result="hardAlpha"/>
<feMorphology radius="1" operator="dilate" in="SourceAlpha" result="effect1_dropShadow_1211_32800"/>
<feOffset dx="5" dy="10"/>
<feGaussianBlur stdDeviation="20"/>
<feComposite in2="hardAlpha" operator="out"/>
<feColorMatrix type="matrix" values="0 0 0 0 0 0 0 0 0 0 0 0 0 0 0 0 0 0 0.5 0"/>
<feBlend mode="normal" in2="BackgroundImageFix" result="effect1_dropShadow_1211_32800"/>
<feColorMatrix in="SourceAlpha" type="matrix" values="0 0 0 0 0 0 0 0 0 0 0 0 0 0 0 0 0 0 127 0" result="hardAlpha"/>
<feOffset dx="2" dy="4"/>
<feGaussianBlur stdDeviation="5"/>
<feComposite in2="hardAlpha" operator="out"/>
<feColorMatrix type="matrix" values="0 0 0 0 0 0 0 0 0 0 0 0 0 0 0 0 0 0 0.5 0"/>
<feBlend mode="normal" in2="effect1_dropShadow_1211_32800" result="effect2_dropShadow_1211_32800"/>
<feBlend mode="normal" in="SourceGraphic" in2="effect2_dropShadow_1211_32800" result="shape"/>
</filter>
<filter id="filter2_dd_1211_32800" x="-6.14099" y="145.475" width="151.282" height="157.05" filterUnits="userSpaceOnUse" color-interpolation-filters="sRGB">
<feFlood flood-opacity="0" result="BackgroundImageFix"/>
<feColorMatrix in="SourceAlpha" type="matrix" values="0 0 0 0 0 0 0 0 0 0 0 0 0 0 0 0 0 0 127 0" result="hardAlpha"/>
<feMorphology radius="1" operator="dilate" in="SourceAlpha" result="effect1_dropShadow_1211_32800"/>
<feOffset dx="5" dy="10"/>
<feGaussianBlur stdDeviation="20"/>
<feComposite in2="hardAlpha" operator="out"/>
<feColorMatrix type="matrix" values="0 0 0 0 0 0 0 0 0 0 0 0 0 0 0 0 0 0 0.5 0"/>
<feBlend mode="normal" in2="BackgroundImageFix" result="effect1_dropShadow_1211_32800"/>
<feColorMatrix in="SourceAlpha" type="matrix" values="0 0 0 0 0 0 0 0 0 0 0 0 0 0 0 0 0 0 127 0" result="hardAlpha"/>
<feOffset dx="2" dy="4"/>
<feGaussianBlur stdDeviation="5"/>
<feComposite in2="hardAlpha" operator="out"/>
<feColorMatrix type="matrix" values="0 0 0 0 0 0 0 0 0 0 0 0 0 0 0 0 0 0 0.5 0"/>
<feBlend mode="normal" in2="effect1_dropShadow_1211_32800" result="effect2_dropShadow_1211_32800"/>
<feBlend mode="normal" in="SourceGraphic" in2="effect2_dropShadow_1211_32800" result="shape"/>
</filter>
<filter id="filter3_dd_1211_32800" x="128.859" y="65.4751" width="151.282" height="157.05" filterUnits="userSpaceOnUse" color-interpolation-filters="sRGB">
<feFlood flood-opacity="0" result="BackgroundImageFix"/>
<feColorMatrix in="SourceAlpha" type="matrix" values="0 0 0 0 0 0 0 0 0 0 0 0 0 0 0 0 0 0 127 0" result="hardAlpha"/>
<feMorphology radius="1" operator="dilate" in="SourceAlpha" result="effect1_dropShadow_1211_32800"/>
<feOffset dx="5" dy="10"/>
<feGaussianBlur stdDeviation="20"/>
<feComposite in2="hardAlpha" operator="out"/>
<feColorMatrix type="matrix" values="0 0 0 0 0 0 0 0 0 0 0 0 0 0 0 0 0 0 0.5 0"/>
<feBlend mode="normal" in2="BackgroundImageFix" result="effect1_dropShadow_1211_32800"/>
<feColorMatrix in="SourceAlpha" type="matrix" values="0 0 0 0 0 0 0 0 0 0 0 0 0 0 0 0 0 0 127 0" result="hardAlpha"/>
<feOffset dx="2" dy="4"/>
<feGaussianBlur stdDeviation="5"/>
<feComposite in2="hardAlpha" operator="out"/>
<feColorMatrix type="matrix" values="0 0 0 0 0 0 0 0 0 0 0 0 0 0 0 0 0 0 0.5 0"/>
<feBlend mode="normal" in2="effect1_dropShadow_1211_32800" result="effect2_dropShadow_1211_32800"/>
<feBlend mode="normal" in="SourceGraphic" in2="effect2_dropShadow_1211_32800" result="shape"/>
</filter>
<linearGradient id="paint0_linear_1211_32800" x1="121.253" y1="255.907" x2="195.184" y2="181.369" gradientUnits="userSpaceOnUse">
<stop offset="0.08" stop-color="#9945FF"/>
<stop offset="0.3" stop-color="#8752F3"/>
<stop offset="0.5" stop-color="#5497D5"/>
<stop offset="0.6" stop-color="#43B4CA"/>
<stop offset="0.72" stop-color="#28E0B9"/>
<stop offset="0.97" stop-color="#19FB9B"/>
</linearGradient>
<clipPath id="clip0_1211_32800">
<rect x="0.5" width="308" height="282" fill="white"/>
</clipPath>
<clipPath id="clip1_1211_32800">
<rect width="45.1342" height="48" fill="white" transform="translate(41.94 30)"/>
</clipPath>
<clipPath id="clip2_1211_32800">
<rect width="64" height="64" fill="white" transform="translate(212.5 22)"/>
</clipPath>
<clipPath id="clip3_1211_32800">
<rect width="38.4" height="33.4574" fill="white" transform="translate(135.3 197.2)"/>
</clipPath>
<clipPath id="clip4_1211_32800">
<rect width="67.2" height="67.2" fill="white" transform="translate(75.9 100.4)"/>
</clipPath>
<clipPath id="clip5_1211_32800">
<rect width="63.9574" height="64" fill="white" transform="translate(167.5 102)"/>
</clipPath>
</defs>
</svg>
