<svg width="17" height="16" viewBox="0 0 17 16" fill="none" xmlns="http://www.w3.org/2000/svg">
<path d="M6.43936 5.99999L4.49969 4.06032L5.56036 2.99966L8.03036 5.46966C8.32325 5.76256 8.32325 6.23743 8.03036 6.53032L5.56036 9.00033L4.49969 7.93967L6.43936 5.99999Z" fill="#9EA9A9"/>
<path d="M12.5 7.5H8.5V9H12.5V7.5Z" fill="#9EA9A9"/>
<path fill-rule="evenodd" clip-rule="evenodd" d="M1.02547 2.01817C0.5 2.93942 0.5 4.17295 0.5 6.64V9.36C0.5 11.8271 0.5 13.0606 1.02547 13.9818C1.3804 14.6041 1.89592 15.1196 2.51817 15.4745C3.43942 16 4.67295 16 7.14 16H9.86C12.3271 16 13.5606 16 14.4818 15.4745C15.1041 15.1196 15.6196 14.6041 15.9745 13.9818C16.5 13.0606 16.5 11.8271 16.5 9.36V6.64C16.5 4.17295 16.5 2.93942 15.9745 2.01817C15.6196 1.39592 15.1041 0.880399 14.4818 0.525474C13.5606 0 12.3271 0 9.86 0H7.14C4.67295 0 3.43942 0 2.51817 0.525474C1.89592 0.880399 1.3804 1.39592 1.02547 2.01817ZM9.86 1.5H7.14C5.87915 1.5 5.0328 1.50141 4.38348 1.55968C3.75446 1.61613 3.45749 1.71655 3.26135 1.82842C2.87245 2.05025 2.55025 2.37245 2.32842 2.76135C2.21655 2.95749 2.11613 3.25446 2.05968 3.88348C2.00141 4.5328 2 5.37915 2 6.64V9.36C2 10.6208 2.00141 11.4672 2.05968 12.1165C2.11613 12.7455 2.21655 13.0425 2.32842 13.2386C2.55025 13.6276 2.87245 13.9498 3.26135 14.1716C3.45749 14.2835 3.75446 14.3839 4.38348 14.4403C5.0328 14.4986 5.87915 14.5 7.14 14.5H9.86C11.1208 14.5 11.9672 14.4986 12.6165 14.4403C13.2455 14.3839 13.5425 14.2835 13.7386 14.1716C14.1276 13.9498 14.4498 13.6276 14.6716 13.2386C14.7835 13.0425 14.8839 12.7455 14.9403 12.1165C14.9986 11.4672 15 10.6208 15 9.36V6.64C15 5.37915 14.9986 4.5328 14.9403 3.88348C14.8839 3.25446 14.7835 2.95749 14.6716 2.76135C14.4498 2.37245 14.1276 2.05025 13.7386 1.82842C13.5425 1.71655 13.2455 1.61613 12.6165 1.55968C11.9672 1.50141 11.1208 1.5 9.86 1.5Z" fill="#9EA9A9"/>
</svg>
