<svg width="22" height="18" viewBox="0 0 22 18" fill="none" xmlns="http://www.w3.org/2000/svg">
<path d="M18.6239 1.99747C17.2217 1.35408 15.7181 0.880053 14.1459 0.608561C14.1173 0.603321 14.0887 0.616415 14.0739 0.642605C13.8805 0.986552 13.6663 1.43526 13.5163 1.78794C11.8254 1.53479 10.1431 1.53479 8.48679 1.78794C8.33676 1.42742 8.11478 0.986552 7.92053 0.642605C7.90578 0.617289 7.87718 0.604195 7.84855 0.608561C6.27725 0.879186 4.7736 1.35321 3.37052 1.99747C3.35838 2.0027 3.34797 2.01144 3.34106 2.02278C0.488942 6.28378 -0.292371 10.44 0.0909151 14.5448C0.0926494 14.5649 0.103922 14.5841 0.119532 14.5963C2.00127 15.9782 3.82406 16.8171 5.61301 17.3732C5.64164 17.3819 5.67197 17.3715 5.69019 17.3479C6.11337 16.77 6.49059 16.1607 6.81402 15.5199C6.83311 15.4824 6.81489 15.4378 6.77588 15.423C6.17754 15.196 5.6078 14.9193 5.05975 14.605C5.0164 14.5797 5.01293 14.5177 5.05281 14.488C5.16814 14.4016 5.2835 14.3117 5.39363 14.2209C5.41355 14.2043 5.44131 14.2008 5.46474 14.2113C9.06518 15.8551 12.9631 15.8551 16.521 14.2113C16.5445 14.1999 16.5722 14.2034 16.593 14.22C16.7032 14.3108 16.8185 14.4016 16.9347 14.488C16.9746 14.5177 16.972 14.5797 16.9286 14.605C16.3806 14.9254 15.8108 15.196 15.2116 15.4221C15.1726 15.437 15.1553 15.4824 15.1744 15.5199C15.5047 16.1598 15.882 16.7691 16.2973 17.347C16.3147 17.3715 16.3459 17.3819 16.3745 17.3732C18.1721 16.8171 19.9949 15.9782 21.8766 14.5963C21.8931 14.5841 21.9035 14.5657 21.9053 14.5456C22.364 9.80012 21.1369 5.67794 18.6525 2.02365C18.6465 2.01144 18.6361 2.0027 18.6239 1.99747ZM7.35169 12.0454C6.26771 12.0454 5.37454 11.0503 5.37454 9.82807C5.37454 8.6059 6.25039 7.61072 7.35169 7.61072C8.46163 7.61072 9.34616 8.61463 9.32881 9.82807C9.32881 11.0503 8.45296 12.0454 7.35169 12.0454ZM14.6619 12.0454C13.5779 12.0454 12.6847 11.0503 12.6847 9.82807C12.6847 8.6059 13.5606 7.61072 14.6619 7.61072C15.7718 7.61072 16.6563 8.61463 16.639 9.82807C16.639 11.0503 15.7718 12.0454 14.6619 12.0454Z" fill="#E4E7E7"/>
</svg>
