<svg width="24" height="22" viewBox="0 0 24 22" xmlns="http://www.w3.org/2000/svg">
<path fill-rule="evenodd" clip-rule="evenodd" d="M11.9983 3.72043e-07C9.3199 0.000273971 6.72901 0.953646 4.68926 2.68951C2.64952 4.42537 1.29404 6.83044 0.865404 9.47431C0.436765 12.1182 0.962938 14.8283 2.34976 17.1197C3.73658 19.4111 5.89355 21.1342 8.43466 21.9807C8.99825 22.0839 9.20388 21.7356 9.20388 21.4365C9.20388 21.1692 9.19419 20.4596 9.18865 19.5186C6.05152 20.1999 5.38961 18.0065 5.38961 18.0065C5.18224 17.3247 4.73802 16.7396 4.13711 16.3566C3.11309 15.6573 4.21466 15.6711 4.21466 15.6711C4.57276 15.72 4.91493 15.8501 5.21496 16.0516C5.51499 16.2531 5.76491 16.5206 5.94558 16.8336C6.09845 17.1118 6.30493 17.3569 6.55309 17.5549C6.80125 17.7528 7.08617 17.8996 7.39139 17.9868C7.69661 18.0739 8.01608 18.0997 8.33133 18.0627C8.64659 18.0257 8.95139 17.9266 9.22811 17.7711C9.27956 17.1992 9.53343 16.6645 9.94403 16.2631C7.43695 15.9785 4.80594 15.0106 4.80594 10.6888C4.78987 9.56835 5.20564 8.48466 5.96705 7.66247C5.62329 6.68961 5.6629 5.62236 6.07783 4.67766C6.07783 4.67766 7.02499 4.3744 9.17896 5.83392C11.0274 5.3271 12.9782 5.3271 14.8266 5.83392C16.9792 4.3744 17.925 4.67766 17.925 4.67766C18.3408 5.62209 18.3809 6.6895 18.0372 7.66247C18.7987 8.48444 19.2138 9.56845 19.1962 10.6888C19.1962 15.0217 16.5596 15.9751 14.047 16.2541C14.3162 16.5276 14.5237 16.8555 14.6558 17.2157C14.7879 17.576 14.8414 17.9603 14.8128 18.343C14.8128 19.8503 14.7989 21.0668 14.7989 21.4365C14.7989 21.7384 15.0018 22.0894 15.5744 21.9793C18.1146 21.131 20.2702 19.4065 21.6553 17.1143C23.0405 14.8222 23.565 12.112 23.1349 9.46863C22.7048 6.82522 21.3482 4.42108 19.3079 2.68631C17.2675 0.951534 14.6765 -0.00068715 11.9983 3.72043e-07Z" fill="currentColor"/>
</svg>
