<svg width="22" height="18" viewBox="0 0 22 18" fill="none" xmlns="http://www.w3.org/2000/svg">
<path d="M19.7477 4.51034C19.7611 4.70429 19.7611 4.89824 19.7611 5.09397C19.7611 11.0581 15.2208 17.9365 6.91863 17.9365V17.9329C4.46614 17.9365 2.06459 17.234 0 15.9094C0.356612 15.9523 0.715011 15.9738 1.0743 15.9747C3.10672 15.9764 5.08105 15.2945 6.67999 14.0388C4.74857 14.0021 3.05489 12.7428 2.46321 10.9043C3.13979 11.0348 3.83693 11.008 4.501 10.8266C2.39529 10.4011 0.880358 8.55105 0.880358 6.40244C0.880358 6.38278 0.880358 6.36401 0.880358 6.34524C1.50778 6.6947 2.21028 6.88865 2.92886 6.9101C0.945602 5.58465 0.334268 2.94626 1.53191 0.88345C3.82352 3.70327 7.20463 5.41751 10.8342 5.59895C10.4704 4.03129 10.9674 2.38855 12.14 1.28654C13.9579 -0.422339 16.8171 -0.334751 18.5259 1.48227C19.5368 1.28296 20.5056 0.91205 21.3922 0.386517C21.0553 1.43133 20.3501 2.31883 19.4081 2.8828C20.3027 2.77734 21.1768 2.53781 22 2.17226C21.394 3.08032 20.6308 3.8713 19.7477 4.51034Z" fill="#E4E7E7"/>
</svg>
